<svg width="198" height="208" viewBox="0 0 198 208" fill="none" xmlns="http://www.w3.org/2000/svg">
<path d="M99.127 185.502C142.233 185.502 177.627 155.957 177.627 119.002C177.627 82.0469 142.233 52.502 99.127 52.502C56.0208 52.502 20.627 82.0469 20.627 119.002C20.627 155.957 56.0208 185.502 99.127 185.502Z" fill="#F4B000" stroke="black" stroke-width="3"/>
<path d="M99.127 141.502C131.872 141.502 158.627 116.989 158.627 86.502C158.627 56.0145 131.872 31.502 99.127 31.502C66.3824 31.502 39.627 56.0145 39.627 86.502C39.627 116.989 66.3824 141.502 99.127 141.502Z" fill="#F4B000" stroke="black" stroke-width="3"/>
<path d="M17.4998 156.449C23.1741 158.287 29.3249 155.962 34.5818 151.303C39.8692 146.617 44.5026 139.381 47.3228 130.73C50.143 122.079 50.6615 113.511 49.1475 106.622C47.6423 99.7733 44.0371 94.2892 38.3629 92.4516C32.6887 90.614 26.5378 92.9387 21.281 97.5979C15.9936 102.284 11.3602 109.519 8.53995 118.171C5.7197 126.822 5.20121 135.39 6.7152 142.278C8.22046 149.127 11.8256 154.611 17.4998 156.449Z" fill="#E7A807" stroke="black" stroke-width="3"/>
<path d="M36.627 113.502C41.5873 113.502 45.8735 110.391 48.8472 105.786C51.8307 101.167 53.627 94.8748 53.627 88.002C53.627 81.1291 51.8307 74.8372 48.8472 70.2176C45.8735 65.6133 41.5873 62.502 36.627 62.502C31.6666 62.502 27.3804 65.6133 24.4067 70.2176C21.4232 74.8372 19.627 81.1291 19.627 88.002C19.627 94.8748 21.4232 101.167 24.4067 105.786C27.3804 110.391 31.6666 113.502 36.627 113.502Z" fill="#E7A807" stroke="black" stroke-width="3"/>
<path d="M180.488 156.449C174.814 158.287 168.663 155.962 163.406 151.303C158.119 146.617 153.486 139.381 150.665 130.73C147.845 122.079 147.327 113.511 148.841 106.622C150.346 99.7733 153.951 94.2892 159.625 92.4516C165.3 90.614 171.45 92.9387 176.707 97.5979C181.995 102.284 186.628 109.519 189.448 118.171C192.269 126.822 192.787 135.39 191.273 142.278C189.768 149.127 186.163 154.611 180.488 156.449Z" fill="#E7A807" stroke="black" stroke-width="3"/>
<path d="M161.361 113.502C156.401 113.502 152.115 110.391 149.141 105.786C146.158 101.167 144.361 94.8748 144.361 88.002C144.361 81.1291 146.158 74.8372 149.141 70.2176C152.115 65.6133 156.401 62.502 161.361 62.502C166.322 62.502 170.608 65.6133 173.582 70.2176C176.565 74.8372 178.361 81.1291 178.361 88.002C178.361 94.8748 176.565 101.167 173.582 105.786C170.608 110.391 166.322 113.502 161.361 113.502Z" fill="#E7A807" stroke="black" stroke-width="3"/>
<ellipse cx="36.627" cy="88.002" rx="15.5" ry="24" fill="#E7A807"/>
<ellipse rx="18.8829" ry="32.1561" transform="matrix(0.951357 0.308092 -0.309944 0.950755 27.9314 124.45)" fill="#E7A807"/>
<ellipse rx="15.5" ry="24" transform="matrix(-1 0 0 1 161.361 88.002)" fill="#E7A807"/>
<ellipse rx="18.8829" ry="32.1561" transform="matrix(-0.951357 0.308092 0.309944 0.950755 170.057 124.45)" fill="#E7A807"/>
<path d="M99.127 140.502C131.397 140.502 157.627 116.363 157.627 86.502C157.627 56.6413 131.397 32.502 99.127 32.502C66.8571 32.502 40.627 56.6413 40.627 86.502C40.627 116.363 66.8571 140.502 99.127 140.502Z" fill="#F4B000" stroke="black"/>
<path d="M99.127 184.502C141.846 184.502 176.627 155.253 176.627 119.002C176.627 82.7513 141.846 53.502 99.127 53.502C56.4076 53.502 21.627 82.7513 21.627 119.002C21.627 155.253 56.4076 184.502 99.127 184.502Z" fill="#F4B000" stroke="black"/>
<ellipse cx="99.127" cy="86.502" rx="58" ry="53.5" fill="#F4B000"/>
<ellipse cx="99.127" cy="119.002" rx="77" ry="65" fill="#F4B000"/>
<path d="M72.127 155.002C79.545 167.831 100.53 185.791 125.127 155.002" stroke="black" stroke-width="4"/>
<path d="M83.127 140.002C87.1859 145.284 98.6684 152.68 112.127 140.002" stroke="black" stroke-width="3"/>
<path d="M69.127 112.002C75.6444 124.31 98.97 147.771 128.127 112.002" stroke="black" stroke-width="6"/>
<path d="M52.127 114.181C65.127 116.635 73.2505 114.328 78.127 97.002" stroke="black" stroke-width="4"/>
<path d="M145.127 115.756C133.044 119.592 123.044 114.904 120.127 97.002" stroke="black" stroke-width="4"/>
<circle cx="88.627" cy="101.502" r="6" fill="#F4B000" stroke="black" stroke-width="3"/>
<path d="M115.627 101.502C115.627 104.726 112.809 107.502 109.127 107.502C105.444 107.502 102.627 104.726 102.627 101.502C102.627 98.278 105.444 95.502 109.127 95.502C112.809 95.502 115.627 98.278 115.627 101.502Z" fill="#F4B000" stroke="black" stroke-width="3"/>
<path d="M55.127 66.8404L62.2659 70.5374C67.6455 61.858 87.6381 53.285 93.127 73.002" stroke="black" stroke-width="4"/>
<path d="M65.127 51.002C74.0454 44.4895 84.1935 41.6403 93.9187 51.0019M105.335 51.0019C114.254 44.4895 124.402 41.6403 134.127 51.0019" stroke="black" stroke-width="4"/>
<path d="M139.127 67.0115L133.187 70.2064C127.924 61.7681 108.149 53.4332 101.127 73.002" stroke="black" stroke-width="4"/>
<path d="M49.127 74.2454C57.5714 72.8367 65.127 78.002 65.127 78.002" stroke="black" stroke-width="2"/>
<path d="M146.127 73.002C134.75 74.6686 133.127 78.002 133.127 78.002" stroke="black" stroke-width="2"/>
<path d="M110.627 94.502C110.627 102.435 105.066 108.502 98.627 108.502C92.1874 108.502 86.627 102.435 86.627 94.502C86.627 86.5687 92.1874 80.502 98.627 80.502C105.066 80.502 110.627 86.5687 110.627 94.502Z" fill="#F4B000" stroke="black" stroke-width="3"/>
<ellipse cx="89.627" cy="101.002" rx="6.5" ry="6" fill="#F4B000"/>
<circle cx="108.127" cy="101.002" r="6" fill="#F4B000"/>
<g filter="url(#filter0_f_17_88)">
<ellipse cx="56.627" cy="93.002" rx="16.5" ry="12" fill="#FF4F4F" fill-opacity="0.2"/>
</g>
<g filter="url(#filter1_f_17_88)">
<ellipse cx="140.627" cy="93.002" rx="16.5" ry="12" fill="#FF4F4F" fill-opacity="0.2"/>
</g>
<path d="M38.9761 72.4645C37.2367 69.561 34.3813 67.6711 31.4368 69.6238C28.8351 71.2802 30.8217 76.1158 30.0264 78.1672C28.8026 80.5045 27.3363 84.6264 28.1044 88.4365" stroke="black" stroke-width="1.5" stroke-linecap="round"/>
<path d="M159.701 72.4645C161.44 69.561 164.295 67.6711 167.24 69.6238C169.842 71.2802 167.855 76.1158 168.65 78.1672C169.874 80.5045 171.34 84.6264 170.572 88.4365" stroke="black" stroke-width="1.5" stroke-linecap="round"/>
<path d="M19.865 117.187C16.8647 120.187 19.3865 122.458 18.858 127.43C18.3296 132.402 13.9829 135.46 18.1408 138.919C20.7864 141.119 23.1439 134.422 18.9545 135.988" stroke="black" stroke-width="1.5" stroke-linecap="round" stroke-linejoin="round"/>
<path d="M178.819 117.187C181.819 120.187 179.297 122.458 179.826 127.43C180.354 132.402 184.701 135.46 180.543 138.919C177.897 141.119 175.54 134.422 179.729 135.988" stroke="black" stroke-width="1.5" stroke-linecap="round" stroke-linejoin="round"/>
<path d="M34.5917 57.243C34.1179 57.8244 33.5903 57.8782 33.0089 57.4044L21.0901 47.6918C20.5087 47.218 20.4549 46.6904 20.9287 46.109L26.8037 38.8996C27.1722 38.4474 27.576 38.4003 28.0153 38.7583C28.4675 39.1268 28.5094 39.5371 28.1409 39.9893L22.8187 46.5204L27.5474 50.3739L32.538 44.2498C32.9065 43.7976 33.3104 43.7505 33.7496 44.1084C34.2018 44.4769 34.2437 44.8873 33.8752 45.3395L28.8847 51.4636L33.8072 55.475L39.1294 48.9439C39.4979 48.4917 39.9018 48.4446 40.341 48.8025C40.7932 49.171 40.8351 49.5814 40.4666 50.0336L34.5917 57.243Z" fill="white"/>
<path d="M45.8372 45.5474C44.9594 46.3656 44.0445 46.7285 43.0926 46.6361C42.1293 46.5316 41.176 45.9733 40.2328 44.9614L31.5391 35.635C31.0732 35.1352 31.084 34.6579 31.5717 34.2034C32.0715 33.7374 32.5544 33.7544 33.0204 34.2542L41.6118 43.471C42.8277 44.7754 43.9539 44.9447 44.9901 43.9787C45.0999 43.8765 45.1917 43.7794 45.2657 43.6877C45.3397 43.596 45.4193 43.5103 45.5047 43.4308C45.6274 43.2936 45.7473 43.2388 45.8642 43.2665C45.9933 43.2828 46.1602 43.4007 46.3648 43.6202C46.7511 44.0347 46.7655 44.4656 46.4078 44.9129C46.333 45.0282 46.2407 45.137 46.131 45.2393C46.0327 45.3538 45.9347 45.4565 45.8372 45.5474Z" fill="white"/>
<path d="M63.1539 33.9088C60.6645 35.2619 58.3862 35.5897 56.3188 34.8923C54.2515 34.1949 52.5453 32.6088 51.2002 30.1341C50.3087 28.494 49.8336 26.9217 49.7746 25.4172C49.7157 23.9128 50.0602 22.5399 50.8083 21.2986C51.5563 20.0574 52.7064 19.0149 54.2587 18.1713C55.1812 17.6698 56.1461 17.3161 57.1533 17.1101C58.1526 16.8895 59.1402 16.8743 60.1163 17.0646C60.4009 17.0997 60.6175 17.219 60.7662 17.4228C60.9069 17.6118 60.9704 17.8334 60.9567 18.0874C60.9497 18.3189 60.8597 18.5196 60.6865 18.6896C60.528 18.8516 60.2991 18.9191 59.9998 18.8921C59.1448 18.7498 58.3247 18.7593 57.5397 18.9204C56.7467 19.0668 55.9402 19.3629 55.1202 19.8086C53.3629 20.7637 52.3182 22.0524 51.9859 23.6747C51.6457 25.2823 52.0207 27.0892 53.1111 29.0954C54.2254 31.1455 55.5603 32.4497 57.1157 33.008C58.6712 33.5663 60.408 33.3241 62.3263 32.2815C63.571 31.6049 64.649 30.744 65.5604 29.6985L63.0652 25.1078L59.9242 26.815C59.397 27.1015 59.0021 27.0032 58.7395 26.5199C58.4848 26.0514 58.621 25.6738 59.1482 25.3873L63.08 23.2502C63.5925 22.9717 63.988 23.0886 64.2666 23.6012L67.3826 29.3341C67.6293 29.788 67.6274 30.1684 67.3769 30.4753C66.9051 31.0732 66.2811 31.6875 65.5046 32.3181C64.7429 32.9408 63.9593 33.4711 63.1539 33.9088Z" fill="white"/>
<path d="M75.6441 28.9487C74.5192 29.3159 73.4646 29.3885 72.4804 29.1663C71.4962 28.9441 70.6295 28.4643 69.8804 27.7271C69.1419 26.9688 68.5736 25.9797 68.1753 24.7597C67.777 23.5397 67.6549 22.4137 67.8089 21.3816C67.9735 20.3285 68.3876 19.4219 69.0512 18.6618C69.7147 17.9017 70.6089 17.338 71.7338 16.9708C72.8429 16.6088 73.8895 16.5388 74.8738 16.761C75.8738 16.978 76.7431 17.4657 77.4815 18.224C78.2306 18.9612 78.8043 19.9398 79.2026 21.1598C79.6008 22.3798 79.7177 23.5163 79.553 24.5694C79.399 25.6015 78.9823 26.5002 78.303 27.2655C77.6394 28.0256 76.7531 28.5867 75.6441 28.9487ZM75.1398 27.4039C76.2171 27.0522 76.9565 26.3901 77.3578 25.4175C77.754 24.4291 77.7193 23.2219 77.2538 21.796C76.7831 20.3542 76.0989 19.3591 75.201 18.8107C74.3031 18.2622 73.3155 18.1639 72.2381 18.5156C71.1449 18.8725 70.3976 19.5372 69.9963 20.5098C69.6108 21.4771 69.6534 22.6817 70.1241 24.1235C70.5896 25.5495 71.2659 26.5472 72.1531 27.1166C73.051 27.6651 74.0465 27.7608 75.1398 27.4039Z" fill="white"/>
<path d="M84.6312 26.6921C83.9584 26.8113 83.5609 26.5262 83.4388 25.837L81.6206 15.5717C81.5014 14.8989 81.7619 14.5058 82.4019 14.3924C83.0583 14.2761 83.4462 14.5544 83.5653 15.2273L83.7964 16.532C83.9909 15.7189 84.3979 15.0544 85.0175 14.5385C85.6341 14.0061 86.4154 13.6392 87.3614 13.4378C87.8779 13.2955 88.2034 13.5087 88.3379 14.0773C88.4889 14.643 88.2502 15.0153 87.6218 15.1943L87.2366 15.3133C86.1217 15.6123 85.324 16.126 84.8437 16.8543C84.3604 17.5661 84.2133 18.4554 84.4022 19.5222L85.4574 25.4794C85.5795 26.1687 85.3041 26.5729 84.6312 26.6921Z" fill="white"/>
<path d="M97.7277 25.3757C96.6449 25.4099 95.6873 25.1817 94.8547 24.691C94.0388 24.1999 93.3912 23.4949 92.912 22.5763C92.4489 21.6404 92.1971 20.5311 92.1567 19.2484C92.1156 17.9491 92.297 16.8261 92.7006 15.8796C93.1204 14.9159 93.7223 14.1715 94.5061 13.6465C95.306 13.1044 96.2474 12.8162 97.3302 12.782C98.2797 12.752 99.1192 12.934 99.8487 13.3278C100.595 13.7211 101.154 14.2788 101.527 15.0007L101.314 8.25405C101.293 7.57105 101.624 7.21878 102.307 7.19722C102.973 7.17618 103.317 7.50716 103.338 8.19016L103.84 24.0822C103.862 24.7819 103.54 25.1422 102.874 25.1633C102.207 25.1843 101.863 24.845 101.841 24.1453L101.8 22.846C101.457 23.6072 100.926 24.2159 100.207 24.6722C99.5036 25.1112 98.6773 25.3458 97.7277 25.3757ZM98.1013 23.7381C99.234 23.7024 100.129 23.2739 100.787 22.4528C101.444 21.6149 101.749 20.4464 101.702 18.9471C101.654 17.4312 101.276 16.2843 100.568 15.5062C99.8595 14.7282 98.939 14.357 97.8063 14.3928C96.6568 14.4291 95.7533 14.8578 95.0955 15.6789C94.4544 16.4996 94.1578 17.6679 94.2056 19.1838C94.253 20.683 94.6227 21.8303 95.3148 22.6255C96.023 23.4035 96.9518 23.7744 98.1013 23.7381Z" fill="white"/>
<path d="M111.862 26.267C110.689 26.1098 109.707 25.7176 108.917 25.0903C108.127 24.4631 107.554 23.6549 107.199 22.6656C106.863 21.6621 106.78 20.5243 106.95 19.2523C107.121 17.9804 107.499 16.9129 108.086 16.0498C108.691 15.1724 109.457 14.5352 110.385 14.1383C111.312 13.7413 112.363 13.6214 113.536 13.7786C114.692 13.9336 115.665 14.3247 116.456 14.9519C117.262 15.5813 117.834 16.3978 118.17 17.4014C118.525 18.3907 118.618 19.5213 118.447 20.7932C118.277 22.0652 117.889 23.1399 117.284 24.0172C116.697 24.8803 115.932 25.5092 114.988 25.904C114.06 26.3009 113.018 26.4219 111.862 26.267ZM112.078 24.6564C113.201 24.8069 114.154 24.5311 114.938 23.829C115.724 23.1103 116.216 22.0076 116.415 20.5209C116.617 19.0177 116.432 17.8242 115.861 16.9406C115.29 16.0569 114.443 15.5398 113.32 15.3892C112.18 15.2365 111.218 15.5111 110.435 16.2133C109.668 16.9176 109.183 18.0214 108.982 19.5246C108.783 21.0114 108.959 22.2037 109.511 23.1017C110.082 23.9854 110.938 24.5036 112.078 24.6564Z" fill="white"/>
<path d="M132.961 32.4555C131.855 31.9886 130.867 31.417 129.994 30.741C129.144 30.056 128.476 29.3034 127.99 28.483C127.816 28.2104 127.754 27.9492 127.805 27.6994C127.856 27.4497 127.97 27.2445 128.147 27.0838C128.339 26.9296 128.547 26.864 128.773 26.8869C129.005 26.8944 129.216 27.0377 129.405 27.3169C129.882 28.1154 130.467 28.7875 131.159 29.3332C131.851 29.8789 132.688 30.3593 133.671 30.7744C135.053 31.3581 136.181 31.536 137.055 31.3083C137.951 31.0716 138.577 30.5311 138.934 29.6867C139.219 29.0112 139.201 28.37 138.878 27.7633C138.571 27.1631 137.898 26.5078 136.859 25.7976L134.668 24.3023C133.355 23.3855 132.483 22.4293 132.053 21.4336C131.645 20.4291 131.688 19.3434 132.181 18.1765C132.589 17.2093 133.192 16.4686 133.988 15.9546C134.799 15.447 135.735 15.1817 136.794 15.1587C137.853 15.1357 138.966 15.3706 140.133 15.8635C141.1 16.2721 141.94 16.7897 142.652 17.4163C143.386 18.034 143.977 18.7542 144.426 19.5769C144.57 19.8366 144.608 20.0881 144.542 20.3314C144.497 20.5658 144.382 20.7524 144.196 20.8912C144.011 21.0301 143.806 21.088 143.58 21.0651C143.361 21.0269 143.149 20.8649 142.944 20.5793C142.531 19.8439 142.029 19.2338 141.438 18.7488C140.862 18.2704 140.182 17.8657 139.399 17.535C138.187 17.0226 137.099 16.8981 136.138 17.1613C135.183 17.4092 134.511 17.9937 134.121 18.9149C133.81 19.6518 133.786 20.3293 134.05 20.9473C134.329 21.5717 134.941 22.201 135.885 22.8351L138.066 24.3535C139.48 25.331 140.417 26.3054 140.875 27.2769C141.355 28.2396 141.358 29.2813 140.884 30.402C140.502 31.3078 139.919 32.0024 139.136 32.4858C138.368 32.9756 137.45 33.2211 136.382 33.2223C135.33 33.23 134.189 32.9744 132.961 32.4555Z" fill="white"/>
<path d="M143.694 38.2759C142.99 37.8301 142.441 37.2951 142.047 36.6709C141.676 36.0415 141.48 35.3849 141.46 34.7011C141.439 34.0173 141.616 33.3797 141.99 32.7883C142.463 32.042 143.027 31.5709 143.684 31.3751C144.355 31.1883 145.191 31.2842 146.194 31.6628C147.22 32.0364 148.508 32.7135 150.057 33.6943L150.733 34.1223L151.147 33.4675C151.7 32.5945 151.914 31.8519 151.789 31.2399C151.686 30.6227 151.241 30.0645 150.452 29.5652C149.959 29.2531 149.419 29 148.832 28.8057C148.259 28.6204 147.616 28.4991 146.902 28.4419C146.583 28.4171 146.361 28.3159 146.236 28.1385C146.135 27.956 146.103 27.7579 146.139 27.5444C146.199 27.3256 146.315 27.1426 146.487 26.9952C146.682 26.8426 146.917 26.784 147.19 26.8191C147.992 26.8927 148.74 27.0508 149.435 27.2934C150.143 27.5449 150.772 27.8445 151.322 28.1923C152.645 29.0304 153.419 29.974 153.642 31.0229C153.88 32.0808 153.566 33.2927 152.701 34.6585L149.077 40.3825C148.702 40.9739 148.255 41.1047 147.734 40.7748C147.184 40.4271 147.097 39.9575 147.472 39.3661L148.127 38.3311C147.476 38.7672 146.757 38.9829 145.971 38.9783C145.199 38.9826 144.44 38.7485 143.694 38.2759ZM144.784 37.1613C145.629 37.6963 146.502 37.8446 147.402 37.606C148.312 37.3534 149.052 36.7766 149.623 35.8754L150.024 35.2417L149.369 34.8271C148.229 34.1049 147.292 33.5906 146.559 33.2842C145.848 32.9726 145.275 32.8659 144.838 32.964C144.424 33.057 144.074 33.3287 143.789 33.7793C143.423 34.3567 143.322 34.9532 143.484 35.569C143.661 36.1937 144.094 36.7244 144.784 37.1613Z" fill="white"/>
<path d="M151.608 43.9221C151.109 43.4796 151.092 42.9966 151.557 42.473L158.476 34.6751C158.929 34.164 159.399 34.1241 159.886 34.5555C160.384 34.998 160.407 35.4748 159.953 35.9859L159.14 36.9022C159.948 36.5942 160.754 36.5402 161.557 36.7402C162.36 36.9402 163.104 37.3444 163.79 37.9528C165.946 39.8664 165.963 42.0201 163.839 44.4137L159.392 49.4253C158.928 49.9489 158.446 49.9894 157.947 49.547C157.436 49.0934 157.413 48.6049 157.877 48.0813L162.241 43.1632C162.993 42.3154 163.373 41.549 163.379 40.8639C163.409 40.1773 163.062 39.5133 162.339 38.8717C161.504 38.1306 160.605 37.8006 159.641 37.8817C158.702 37.9614 157.85 38.4314 157.087 39.2916L153.072 43.817C152.607 44.3406 152.119 44.3756 151.608 43.9221Z" fill="white"/>
<path d="M163.946 56.7215C163.202 55.8015 162.758 54.8422 162.614 53.8435C162.471 52.8447 162.61 51.864 163.031 50.9011C163.476 49.9408 164.198 49.057 165.195 48.2498C166.193 47.4426 167.201 46.9269 168.221 46.7026C169.263 46.4808 170.258 46.5443 171.205 46.8931C172.151 47.2419 172.997 47.8762 173.741 48.7962C174.475 49.7032 174.914 50.656 175.057 51.6548C175.211 52.6664 175.066 53.6525 174.621 54.6128C174.199 55.5756 173.489 56.4606 172.492 57.2678C171.494 58.075 170.474 58.5895 169.431 58.8113C168.412 59.0356 167.424 58.9668 166.467 58.6051C165.52 58.2563 164.68 57.6285 163.946 56.7215ZM165.209 55.6994C165.922 56.5804 166.804 57.035 167.856 57.063C168.921 57.0806 170.036 56.6176 171.202 55.6741C172.381 54.7202 173.067 53.726 173.259 52.6915C173.451 51.6571 173.191 50.6994 172.478 49.8183C171.755 48.9243 170.867 48.4632 169.815 48.4352C168.774 48.4201 167.664 48.8896 166.485 49.8435C165.319 50.787 164.628 51.7747 164.412 52.8067C164.22 53.8411 164.486 54.8053 165.209 55.6994Z" fill="white"/>
<path d="M33.5068 173.392C33.1733 172.923 33.0588 172.464 33.1633 172.017C33.2743 171.566 33.6005 171.148 34.142 170.763L39.1321 167.22C39.3995 167.03 39.6259 167.066 39.8111 167.327C40.001 167.594 39.9623 167.823 39.6948 168.013L34.7634 171.514C34.0654 172.01 33.9133 172.535 34.3069 173.089C34.3486 173.148 34.3889 173.198 34.4279 173.239C34.4668 173.28 34.5025 173.323 34.5349 173.369C34.5924 173.436 34.6108 173.496 34.5902 173.55C34.5742 173.611 34.5075 173.682 34.3901 173.766C34.1683 173.923 33.9624 173.903 33.7723 173.704C33.7222 173.661 33.6763 173.61 33.6346 173.552C33.5864 173.498 33.5438 173.444 33.5068 173.392Z" fill="white"/>
<path d="M36.3607 176.903C36.0879 176.61 35.8979 176.295 35.7908 175.957C35.6949 175.62 35.6837 175.291 35.7571 174.971C35.8304 174.651 35.99 174.377 36.2357 174.147C36.5457 173.858 36.8651 173.708 37.1938 173.697C37.5279 173.691 37.9049 173.837 38.3247 174.135C38.7559 174.433 39.2716 174.904 39.8719 175.547L40.1338 175.828L40.4059 175.574C40.7685 175.236 40.9579 174.917 40.974 174.618C41.0013 174.318 40.8622 174.005 40.5566 173.678C40.3656 173.473 40.1456 173.29 39.8965 173.128C39.6528 172.973 39.3688 172.838 39.0444 172.725C38.899 172.675 38.8082 172.601 38.772 172.503C38.747 172.406 38.756 172.31 38.7989 172.216C38.8531 172.121 38.9292 172.05 39.0271 172.003C39.1363 171.956 39.2522 171.957 39.3751 172.006C39.7384 172.138 40.0667 172.302 40.3598 172.499C40.6584 172.702 40.9141 172.917 41.127 173.145C41.6399 173.695 41.8847 174.227 41.8611 174.742C41.8431 175.262 41.5503 175.787 40.9829 176.316L38.605 178.534C38.3593 178.763 38.1355 178.77 37.9336 178.553C37.7207 178.325 37.7372 178.097 37.9829 177.867L38.4128 177.466C38.0576 177.59 37.6977 177.603 37.3332 177.505C36.9741 177.413 36.65 177.213 36.3607 176.903ZM37.0024 176.517C37.3298 176.868 37.7172 177.043 38.1644 177.042C38.6174 177.035 39.0312 176.857 39.4055 176.507L39.6688 176.262L39.415 175.99C38.973 175.516 38.6003 175.163 38.2971 174.932C38.0051 174.701 37.7517 174.582 37.5368 174.575C37.3333 174.567 37.138 174.651 36.9508 174.826C36.7109 175.05 36.5914 175.314 36.5921 175.62C36.5982 175.932 36.735 176.231 37.0024 176.517Z" fill="white"/>
<path d="M42.5464 182.665C42.1892 182.381 41.9349 182.052 41.7835 181.676C41.6371 181.295 41.61 180.911 41.7022 180.524L41.3143 181.013C41.1054 181.276 40.8756 181.308 40.625 181.109C40.3743 180.91 40.3535 180.679 40.5623 180.416L45.3069 174.438C45.5108 174.181 45.7381 174.152 45.9887 174.351C46.2456 174.555 46.2721 174.786 46.0682 175.042L44.0615 177.571C44.407 177.406 44.7797 177.354 45.1797 177.417C45.5798 177.479 45.9553 177.649 46.3062 177.928C46.7135 178.251 46.9904 178.629 47.1371 179.062C47.2949 179.494 47.3135 179.953 47.193 180.439C47.0837 180.924 46.8351 181.411 46.4471 181.9C46.0642 182.383 45.6464 182.735 45.1937 182.958C44.7523 183.18 44.301 183.266 43.8397 183.217C43.3848 183.172 42.9537 182.988 42.5464 182.665ZM42.8715 181.927C43.2976 182.265 43.7584 182.386 44.2541 182.289C44.7547 182.186 45.2288 181.852 45.6764 181.288C46.129 180.718 46.3461 180.181 46.328 179.676C46.3098 179.171 46.0876 178.75 45.6615 178.412C45.2354 178.074 44.7745 177.953 44.2789 178.05C43.7832 178.147 43.3091 178.48 42.8566 179.05C42.409 179.614 42.1918 180.152 42.205 180.663C42.2232 181.168 42.4454 181.589 42.8715 181.927Z" fill="white"/>
<path d="M48.3799 186.698C47.8925 186.406 47.534 186.047 47.3043 185.621C47.0747 185.195 46.9754 184.73 47.0063 184.226C47.0482 183.72 47.2274 183.202 47.5437 182.674C47.86 182.145 48.2292 181.746 48.6515 181.477C49.0847 181.205 49.5435 181.069 50.0278 181.07C50.5121 181.07 50.998 181.217 51.4854 181.508C51.9659 181.796 52.321 182.153 52.5506 182.579C52.7871 183.01 52.8844 183.478 52.8425 183.984C52.8115 184.488 52.6379 185.004 52.3216 185.533C52.0053 186.061 51.6305 186.462 51.1973 186.734C50.7751 187.003 50.3183 187.136 49.8272 187.131C49.3429 187.13 48.8604 186.986 48.3799 186.698ZM48.7804 186.029C49.2472 186.308 49.7199 186.367 50.1986 186.206C50.6813 186.038 51.1075 185.645 51.4772 185.027C51.851 184.403 51.9958 183.841 51.9115 183.343C51.8272 182.846 51.5517 182.457 51.0849 182.178C50.6112 181.894 50.135 181.833 49.6564 181.994C49.1846 182.159 48.7618 182.554 48.388 183.179C48.0183 183.797 47.8701 184.356 47.9435 184.857C48.0277 185.355 48.3067 185.745 48.7804 186.029Z" fill="white"/>
<path d="M52.9779 189.22C52.6818 189.079 52.606 188.857 52.7505 188.553L54.9025 184.036C55.0436 183.739 55.2549 183.658 55.5366 183.793C55.8255 183.93 55.8994 184.147 55.7584 184.443L55.4849 185.017C55.7876 184.754 56.1319 184.608 56.5178 184.579C56.9071 184.543 57.3147 184.618 57.7405 184.803C57.9819 184.891 58.0497 185.065 57.9437 185.325C57.8449 185.588 57.6479 185.667 57.3524 185.561L57.1688 185.501C56.6498 185.307 56.1949 185.285 55.8042 185.435C55.4169 185.579 55.1114 185.885 54.8878 186.355L53.6389 188.976C53.4944 189.28 53.2741 189.361 52.9779 189.22Z" fill="white"/>
<path d="M59.1867 191.987C58.8123 191.847 58.5019 191.649 58.2558 191.394C58.0199 191.135 57.8636 190.846 57.7869 190.526C57.7103 190.207 57.731 189.89 57.849 189.575C57.9981 189.179 58.2172 188.902 58.5066 188.746C58.8035 188.592 59.2061 188.555 59.7145 188.635C60.2332 188.71 60.9045 188.902 61.7284 189.212L62.0879 189.347L62.2186 188.998C62.3929 188.534 62.4207 188.164 62.3018 187.889C62.1933 187.609 61.9294 187.39 61.5099 187.233C61.2478 187.134 60.9693 187.068 60.6743 187.034C60.3869 187.003 60.0727 187.009 59.7319 187.052C59.5793 187.072 59.465 187.046 59.3892 186.975C59.3237 186.899 59.2891 186.809 59.2854 186.705C59.292 186.597 59.3285 186.499 59.395 186.413C59.4718 186.322 59.5763 186.272 59.7083 186.261C60.0922 186.218 60.4592 186.219 60.8094 186.265C61.1671 186.313 61.4919 186.393 61.784 186.502C62.4881 186.767 62.9439 187.134 63.1517 187.605C63.3669 188.079 63.3381 188.679 63.0654 189.406L61.9225 192.45C61.8045 192.765 61.6069 192.87 61.3297 192.766C61.0376 192.657 60.9506 192.444 61.0687 192.13L61.2754 191.579C61.0122 191.848 60.6956 192.02 60.3258 192.095C59.9634 192.172 59.5837 192.136 59.1867 191.987ZM59.59 191.357C60.0394 191.526 60.4641 191.51 60.8639 191.31C61.2666 191.102 61.5579 190.758 61.7379 190.279L61.8644 189.942L61.5161 189.811C60.9094 189.584 60.4189 189.434 60.0443 189.361C59.6801 189.284 59.4002 189.29 59.2045 189.379C59.019 189.464 58.8813 189.625 58.7914 189.865C58.6761 190.172 58.6868 190.462 58.8234 190.736C58.9675 191.012 59.223 191.219 59.59 191.357Z" fill="white"/>
<path d="M67.0161 194.59C66.3552 194.399 65.9094 194.082 65.6789 193.641C65.4506 193.192 65.432 192.637 65.623 191.976L66.4727 189.036L65.7003 188.813C65.4313 188.735 65.3323 188.573 65.4034 188.328C65.4723 188.089 65.6412 188.009 65.9102 188.087L66.6826 188.31L67.0658 186.984C67.1568 186.669 67.3599 186.557 67.675 186.648C67.9824 186.737 68.0906 186.939 67.9995 187.254L67.6164 188.58L69.0689 189C69.3379 189.077 69.438 189.235 69.3691 189.474C69.298 189.72 69.128 189.804 68.859 189.726L67.4065 189.306L66.5835 192.154C66.4569 192.592 66.4524 192.953 66.5703 193.237C66.6903 193.513 66.9578 193.711 67.3728 193.831C67.5189 193.873 67.6463 193.893 67.7551 193.891C67.8639 193.889 67.9567 193.9 68.0335 193.922C68.1049 193.934 68.1559 193.974 68.1865 194.041C68.217 194.108 68.2134 194.207 68.1757 194.338C68.149 194.43 68.1054 194.509 68.0447 194.575C67.9918 194.643 67.9186 194.68 67.8252 194.686C67.724 194.69 67.5933 194.681 67.4329 194.66C67.278 194.649 67.1391 194.625 67.0161 194.59Z" fill="white"/>
<path d="M72.2149 195.883C71.6598 195.762 71.2053 195.536 70.8515 195.206C70.4976 194.875 70.2549 194.466 70.1233 193.979C70.0012 193.486 70.0055 192.938 70.1363 192.336C70.2671 191.734 70.4895 191.238 70.8035 190.848C71.127 190.452 71.5183 190.177 71.9775 190.023C72.4367 189.869 72.9438 189.852 73.4988 189.972C74.0461 190.091 74.4966 190.316 74.8505 190.647C75.2122 190.979 75.4541 191.392 75.5761 191.885C75.7077 192.372 75.7082 192.917 75.5774 193.518C75.4466 194.12 75.2195 194.62 74.8959 195.016C74.5819 195.406 74.1915 195.677 73.7245 195.83C73.2653 195.984 72.7621 196.001 72.2149 195.883ZM72.3805 195.12C72.9121 195.236 73.3789 195.141 73.7809 194.835C74.1847 194.522 74.463 194.013 74.6158 193.31C74.7704 192.598 74.7281 192.02 74.4891 191.575C74.2501 191.13 73.8648 190.85 73.3332 190.735C72.7938 190.617 72.3231 190.712 71.921 191.017C71.5268 191.325 71.2524 191.834 71.0979 192.545C70.945 193.249 70.9833 193.826 71.2128 194.277C71.4518 194.722 71.841 195.003 72.3805 195.12Z" fill="white"/>
<path d="M76.9119 196.78C76.5878 196.73 76.4517 196.538 76.5034 196.206L77.2745 191.262C77.3251 190.938 77.5045 190.8 77.8127 190.848C78.1289 190.897 78.2617 191.084 78.2112 191.408L78.1132 192.036C78.328 191.698 78.6162 191.459 78.9777 191.321C79.3405 191.175 79.7524 191.13 80.2133 191.186C80.47 191.202 80.5846 191.349 80.5573 191.628C80.5379 191.909 80.3715 192.041 80.0583 192.024L79.8649 192.018C79.3121 191.981 78.87 192.09 78.5386 192.346C78.2084 192.594 78.0033 192.975 77.9232 193.489L77.4757 196.358C77.4239 196.69 77.236 196.831 76.9119 196.78Z" fill="white"/>
<path d="M82.7794 190.896C82.3581 190.848 82.1701 190.625 82.2153 190.228C82.2596 189.838 82.4923 189.667 82.9136 189.715C83.3349 189.763 83.5234 189.982 83.4791 190.371C83.4339 190.769 83.2007 190.944 82.7794 190.896ZM81.9551 198.145C81.6371 198.109 81.498 197.916 81.5378 197.566L82.0923 192.69C82.1312 192.348 82.3096 192.195 82.6275 192.231C82.9534 192.268 83.097 192.458 83.0581 192.799L82.5036 197.676C82.4638 198.026 82.281 198.182 81.9551 198.145Z" fill="white"/>
<path d="M87.0242 198.018C86.4575 197.979 85.9753 197.821 85.5775 197.545C85.1797 197.269 84.8807 196.899 84.6803 196.436C84.4885 195.965 84.4139 195.423 84.4567 194.808C84.4994 194.194 84.648 193.671 84.9026 193.24C85.1656 192.801 85.5133 192.472 85.9455 192.254C86.3777 192.035 86.8771 191.945 87.4437 191.985C88.0024 192.024 88.4806 192.181 88.8784 192.457C89.2842 192.734 89.583 193.108 89.7748 193.578C89.9752 194.041 90.054 194.58 90.0112 195.195C89.9685 195.809 89.8156 196.336 89.5525 196.775C89.298 197.206 88.9506 197.531 88.5105 197.749C88.0783 197.967 87.5828 198.057 87.0242 198.018ZM87.0783 197.24C87.621 197.278 88.0692 197.117 88.4231 196.756C88.7775 196.388 88.9797 195.845 89.0296 195.126C89.0801 194.4 88.9551 193.834 88.6545 193.428C88.3539 193.022 87.9323 192.801 87.3896 192.763C86.8389 192.725 86.3867 192.886 86.0328 193.246C85.687 193.607 85.4888 194.15 85.4383 194.877C85.3883 195.595 85.5094 196.161 85.8014 196.574C86.102 196.98 86.5276 197.202 87.0783 197.24Z" fill="white"/>
<path d="M97.997 200.468C97.5732 200.478 97.156 200.437 96.7455 200.344C96.3431 200.258 95.9753 200.111 95.6418 199.904C95.52 199.835 95.4458 199.749 95.4192 199.645C95.4007 199.55 95.4143 199.453 95.4598 199.356C95.5055 199.267 95.5719 199.201 95.6588 199.159C95.7538 199.116 95.8539 199.122 95.9593 199.175C96.3167 199.382 96.6564 199.522 96.9784 199.593C97.3003 199.665 97.6172 199.697 97.9291 199.689C99.0807 199.66 99.6414 199.053 99.6112 197.869L99.5848 196.838C99.4263 197.21 99.1698 197.509 98.8154 197.734C98.4689 197.951 98.0677 198.065 97.6118 198.077C97.076 198.09 96.609 197.978 96.2108 197.74C95.8126 197.502 95.5 197.17 95.273 196.744C95.0538 196.309 94.9369 195.804 94.9222 195.228C94.9074 194.653 94.9985 194.146 95.1954 193.709C95.4001 193.264 95.6953 192.916 96.0811 192.666C96.4668 192.416 96.9276 192.284 97.4634 192.271C97.9193 192.259 98.3257 192.349 98.6827 192.539C99.0397 192.73 99.3067 193.004 99.4839 193.359L99.4679 192.735C99.4596 192.408 99.6153 192.24 99.9352 192.231C100.255 192.223 100.419 192.383 100.428 192.711L100.555 197.713C100.578 198.609 100.372 199.287 99.9352 199.746C99.5068 200.205 98.8607 200.445 97.997 200.468ZM97.7715 197.28C98.3313 197.266 98.7703 197.063 99.0884 196.67C99.4064 196.278 99.5572 195.758 99.5406 195.11C99.5241 194.463 99.3471 193.955 99.0096 193.587C98.6719 193.212 98.2231 193.031 97.6633 193.046C97.1115 193.06 96.6765 193.263 96.3584 193.655C96.0401 194.039 95.8893 194.555 95.9058 195.203C95.9224 195.851 96.0995 196.363 96.4372 196.738C96.7749 197.114 97.2197 197.294 97.7715 197.28Z" fill="white"/>
<path d="M105.614 197.908C105.215 197.945 104.85 197.902 104.517 197.78C104.192 197.649 103.925 197.456 103.717 197.202C103.509 196.948 103.39 196.654 103.36 196.319C103.321 195.897 103.398 195.552 103.59 195.286C103.791 195.018 104.137 194.81 104.63 194.661C105.129 194.502 105.817 194.383 106.694 194.303L107.076 194.268L107.042 193.898C106.997 193.404 106.861 193.059 106.634 192.863C106.415 192.658 106.082 192.576 105.636 192.616C105.357 192.642 105.077 192.704 104.797 192.802C104.525 192.899 104.245 193.041 103.957 193.228C103.828 193.312 103.714 193.339 103.614 193.307C103.522 193.268 103.452 193.202 103.403 193.11C103.362 193.009 103.353 192.906 103.375 192.799C103.405 192.684 103.477 192.593 103.591 192.526C103.918 192.32 104.249 192.161 104.584 192.05C104.927 191.938 105.254 191.868 105.565 191.84C106.314 191.771 106.884 191.904 107.276 192.238C107.676 192.57 107.911 193.123 107.982 193.896L108.278 197.135C108.309 197.469 108.177 197.65 107.882 197.677C107.571 197.705 107.401 197.552 107.37 197.218L107.317 196.632C107.196 196.989 106.986 197.281 106.686 197.509C106.393 197.737 106.036 197.87 105.614 197.908ZM105.702 197.165C106.18 197.122 106.556 196.923 106.829 196.568C107.101 196.206 107.214 195.77 107.167 195.26L107.134 194.902L106.764 194.935C106.118 194.994 105.611 195.073 105.243 195.171C104.881 195.26 104.632 195.387 104.494 195.553C104.364 195.709 104.311 195.915 104.334 196.17C104.364 196.496 104.5 196.753 104.742 196.94C104.992 197.126 105.312 197.201 105.702 197.165Z" fill="white"/>
<path d="M112.691 197.095C112.335 197.147 111.969 197.157 111.592 197.124C111.222 197.082 110.867 196.98 110.528 196.82C110.373 196.754 110.285 196.654 110.265 196.52C110.252 196.376 110.291 196.257 110.382 196.163C110.473 196.068 110.604 196.049 110.774 196.105C111.111 196.249 111.427 196.34 111.724 196.377C112.027 196.404 112.321 196.397 112.606 196.355C113.057 196.288 113.385 196.155 113.59 195.955C113.795 195.755 113.877 195.512 113.834 195.227C113.802 195.006 113.701 194.843 113.532 194.738C113.361 194.626 113.109 194.558 112.774 194.535L111.658 194.457C110.645 194.389 110.08 193.955 109.962 193.156C109.884 192.633 110.028 192.184 110.393 191.806C110.765 191.428 111.288 191.189 111.961 191.089C112.301 191.039 112.636 191.038 112.967 191.086C113.296 191.126 113.602 191.226 113.885 191.387C114.033 191.462 114.11 191.568 114.114 191.704C114.118 191.841 114.07 191.958 113.971 192.053C113.879 192.14 113.751 192.146 113.586 192.074C113.325 191.951 113.067 191.871 112.811 191.837C112.554 191.794 112.307 191.79 112.069 191.825C111.626 191.891 111.303 192.027 111.099 192.235C110.895 192.443 110.815 192.69 110.857 192.975C110.922 193.418 111.257 193.66 111.862 193.7L112.975 193.765C113.498 193.801 113.908 193.922 114.206 194.129C114.502 194.328 114.681 194.633 114.741 195.045C114.82 195.575 114.672 196.025 114.298 196.396C113.923 196.759 113.388 196.992 112.691 197.095Z" fill="white"/>
<path d="M119.295 195.943C118.62 196.077 118.079 196.001 117.671 195.715C117.262 195.422 116.99 194.937 116.856 194.263L116.258 191.262L115.469 191.419C115.195 191.473 115.032 191.375 114.982 191.124C114.934 190.881 115.047 190.732 115.322 190.677L116.11 190.52L115.841 189.167C115.777 188.845 115.905 188.652 116.227 188.588C116.541 188.526 116.73 188.655 116.794 188.977L117.063 190.33L118.546 190.035C118.821 189.98 118.982 190.075 119.031 190.318C119.081 190.569 118.969 190.722 118.694 190.776L117.211 191.072L117.79 193.979C117.879 194.426 118.041 194.748 118.277 194.946C118.51 195.136 118.839 195.189 119.262 195.105C119.412 195.075 119.534 195.034 119.63 194.983C119.725 194.931 119.813 194.897 119.891 194.882C119.96 194.86 120.024 194.872 120.082 194.917C120.14 194.963 120.182 195.052 120.208 195.186C120.227 195.28 120.225 195.37 120.201 195.456C120.185 195.541 120.138 195.608 120.058 195.656C119.97 195.706 119.85 195.759 119.697 195.813C119.554 195.875 119.42 195.918 119.295 195.943Z" fill="white"/>
<path d="M122.044 195.328C121.725 195.406 121.526 195.282 121.446 194.956L120.254 190.095C120.176 189.777 120.289 189.58 120.592 189.506C120.902 189.43 121.097 189.551 121.175 189.87L121.326 190.487C121.394 190.092 121.568 189.761 121.849 189.494C122.128 189.22 122.491 189.02 122.937 188.894C123.18 188.81 123.343 188.902 123.425 189.17C123.515 189.436 123.412 189.622 123.117 189.727L122.936 189.796C122.412 189.974 122.045 190.245 121.838 190.609C121.629 190.965 121.586 191.396 121.71 191.901L122.401 194.721C122.481 195.048 122.362 195.25 122.044 195.328Z" fill="white"/>
<path d="M129.489 193.343C128.947 193.511 128.44 193.539 127.969 193.425C127.498 193.312 127.086 193.076 126.731 192.717C126.382 192.348 126.116 191.869 125.933 191.281C125.75 190.692 125.7 190.151 125.781 189.657C125.867 189.153 126.072 188.72 126.395 188.36C126.719 188 127.152 187.735 127.695 187.567C128.229 187.401 128.732 187.374 129.203 187.488C129.682 187.599 130.095 187.839 130.445 188.208C130.799 188.567 131.068 189.041 131.25 189.629C131.433 190.217 131.481 190.763 131.395 191.268C131.314 191.762 131.108 192.19 130.777 192.553C130.453 192.913 130.024 193.176 129.489 193.343ZM129.258 192.598C129.777 192.436 130.137 192.124 130.336 191.66C130.533 191.188 130.524 190.608 130.311 189.921C130.095 189.226 129.773 188.743 129.346 188.474C128.919 188.204 128.446 188.15 127.926 188.312C127.399 188.476 127.036 188.789 126.836 189.254C126.645 189.715 126.657 190.294 126.873 190.989C127.086 191.676 127.404 192.16 127.826 192.439C128.253 192.709 128.73 192.762 129.258 192.598Z" fill="white"/>
<path d="M134.466 191.673C134.168 191.79 133.958 191.692 133.835 191.38L132.007 186.721C131.887 186.416 131.973 186.207 132.263 186.093C132.561 185.976 132.77 186.07 132.89 186.375L133.104 186.923C133.149 186.51 133.301 186.154 133.561 185.854C133.822 185.554 134.157 185.324 134.567 185.163C135.855 184.657 136.78 185.119 137.341 186.549L138.516 189.543C138.638 189.856 138.551 190.071 138.253 190.187C137.947 190.307 137.733 190.211 137.611 189.898L136.458 186.96C136.259 186.454 136.014 186.125 135.722 185.973C135.435 185.81 135.076 185.814 134.644 185.983C134.145 186.179 133.808 186.492 133.632 186.922C133.462 187.341 133.477 187.807 133.679 188.321L134.74 191.025C134.863 191.337 134.771 191.554 134.466 191.673Z" fill="white"/>
<path d="M142.684 188.221C142.173 188.469 141.676 188.573 141.194 188.532C140.711 188.491 140.268 188.319 139.863 188.018C139.462 187.706 139.127 187.273 138.858 186.719C138.588 186.165 138.456 185.637 138.462 185.137C138.471 184.625 138.609 184.167 138.874 183.762C139.14 183.357 139.528 183.03 140.039 182.782C140.543 182.537 141.036 182.435 141.518 182.476C142.008 182.514 142.453 182.689 142.854 183.001C143.259 183.302 143.596 183.73 143.865 184.284C144.134 184.838 144.265 185.371 144.255 185.882C144.25 186.383 144.111 186.838 143.838 187.246C143.572 187.651 143.188 187.976 142.684 188.221ZM142.343 187.519C142.832 187.281 143.14 186.918 143.267 186.429C143.391 185.933 143.295 185.362 142.98 184.714C142.662 184.059 142.271 183.631 141.808 183.429C141.345 183.227 140.869 183.245 140.38 183.483C139.884 183.725 139.572 184.09 139.445 184.579C139.325 185.064 139.424 185.634 139.743 186.289C140.058 186.936 140.445 187.366 140.904 187.579C141.367 187.781 141.846 187.761 142.343 187.519ZM140.075 181.95C140.059 182.083 139.999 182.17 139.895 182.211C139.787 182.246 139.684 182.243 139.584 182.203C139.488 182.151 139.437 182.056 139.431 181.916L139.482 179.717C139.488 179.563 139.535 179.451 139.626 179.38C139.723 179.306 139.827 179.273 139.938 179.282C140.056 179.286 140.157 179.33 140.242 179.414C140.324 179.49 140.355 179.599 140.335 179.742L140.075 181.95Z" fill="white"/>
<path d="M148.059 185.509C147.79 185.683 147.565 185.629 147.382 185.347L144.663 181.146C144.485 180.871 144.527 180.648 144.789 180.479C145.057 180.305 145.281 180.355 145.459 180.631L145.772 181.114C145.728 180.723 145.787 180.366 145.949 180.042C146.107 179.711 146.36 179.432 146.71 179.206C147.475 178.711 148.181 178.726 148.826 179.252C148.774 178.847 148.835 178.464 149.011 178.102C149.183 177.734 149.456 177.428 149.832 177.185C150.92 176.481 151.882 176.773 152.716 178.063L154.464 180.762C154.647 181.044 154.6 181.274 154.325 181.453C154.056 181.627 153.831 181.573 153.648 181.29L151.926 178.631C151.635 178.181 151.342 177.904 151.046 177.8C150.752 177.685 150.424 177.745 150.061 177.98C149.665 178.237 149.441 178.582 149.388 179.016C149.336 179.45 149.462 179.903 149.766 180.373L151.331 182.79C151.514 183.072 151.467 183.303 151.192 183.481C150.923 183.655 150.698 183.601 150.515 183.319L148.794 180.659C148.502 180.209 148.209 179.932 147.913 179.828C147.619 179.713 147.291 179.773 146.928 180.008C146.525 180.269 146.298 180.617 146.245 181.051C146.2 181.481 146.329 181.931 146.633 182.401L148.198 184.818C148.381 185.1 148.334 185.331 148.059 185.509Z" fill="white"/>
<path d="M152.561 173.529C152.231 173.795 151.94 173.773 151.689 173.462C151.443 173.157 151.485 172.871 151.815 172.605C152.145 172.338 152.433 172.358 152.679 172.663C152.93 172.974 152.891 173.263 152.561 173.529ZM157.143 179.206C156.894 179.407 156.659 179.371 156.438 179.097L153.355 175.278C153.139 175.01 153.156 174.776 153.405 174.575C153.66 174.369 153.896 174.4 154.112 174.667L157.195 178.486C157.416 178.76 157.399 179 157.143 179.206Z" fill="white"/>
<path d="M161.282 175.667C160.857 176.068 160.406 176.324 159.927 176.436C159.443 176.541 158.961 176.508 158.479 176.336C157.997 176.152 157.545 175.837 157.121 175.389C156.484 174.715 156.167 174.013 156.17 173.283C156.168 172.547 156.487 171.877 157.126 171.273C157.336 171.075 157.587 170.903 157.879 170.759C158.166 170.608 158.474 170.521 158.803 170.496C158.968 170.472 159.091 170.521 159.173 170.642C159.26 170.758 159.285 170.883 159.247 171.018C159.215 171.147 159.108 171.226 158.926 171.255C158.66 171.287 158.426 171.354 158.225 171.456C158.03 171.552 157.859 171.669 157.714 171.807C157.272 172.225 157.064 172.686 157.09 173.19C157.11 173.688 157.364 174.196 157.853 174.714C158.332 175.22 158.83 175.508 159.349 175.579C159.862 175.644 160.339 175.468 160.781 175.05C160.926 174.913 161.053 174.75 161.16 174.56C161.273 174.365 161.353 174.135 161.4 173.871C161.439 173.691 161.526 173.591 161.663 173.573C161.794 173.548 161.911 173.585 162.016 173.684C162.127 173.778 162.166 173.901 162.133 174.053C162.09 174.38 161.991 174.682 161.836 174.961C161.676 175.234 161.491 175.469 161.282 175.667Z" fill="white"/>
<path d="M165.789 170.861C165.428 171.299 165.02 171.6 164.564 171.764C164.108 171.928 163.634 171.957 163.141 171.852C162.646 171.735 162.161 171.481 161.685 171.089C161.21 170.698 160.87 170.274 160.666 169.816C160.461 169.347 160.395 168.873 160.468 168.394C160.541 167.916 160.758 167.457 161.119 167.018C161.474 166.586 161.88 166.288 162.336 166.124C162.797 165.954 163.275 165.928 163.769 166.044C164.262 166.15 164.747 166.398 165.223 166.789C165.698 167.181 166.039 167.611 166.243 168.08C166.447 168.537 166.51 169.009 166.432 169.494C166.359 169.972 166.145 170.428 165.789 170.861ZM165.187 170.365C165.533 169.945 165.661 169.486 165.573 168.989C165.479 168.487 165.154 168.007 164.597 167.549C164.035 167.087 163.502 166.86 162.997 166.87C162.492 166.879 162.067 167.094 161.721 167.514C161.37 167.94 161.239 168.402 161.327 168.899C161.42 169.39 161.748 169.867 162.31 170.33C162.866 170.787 163.397 171.017 163.903 171.019C164.408 171.009 164.836 170.791 165.187 170.365Z" fill="white"/>
<defs>
<filter id="filter0_f_17_88" x="36.127" y="77.002" width="41" height="32" filterUnits="userSpaceOnUse" color-interpolation-filters="sRGB">
<feFlood flood-opacity="0" result="BackgroundImageFix"/>
<feBlend mode="normal" in="SourceGraphic" in2="BackgroundImageFix" result="shape"/>
<feGaussianBlur stdDeviation="2" result="effect1_foregroundBlur_17_88"/>
</filter>
<filter id="filter1_f_17_88" x="120.127" y="77.002" width="41" height="32" filterUnits="userSpaceOnUse" color-interpolation-filters="sRGB">
<feFlood flood-opacity="0" result="BackgroundImageFix"/>
<feBlend mode="normal" in="SourceGraphic" in2="BackgroundImageFix" result="shape"/>
<feGaussianBlur stdDeviation="2" result="effect1_foregroundBlur_17_88"/>
</filter>
</defs>
</svg>
