<svg width="1084" height="1053" viewBox="0 0 1084 1053" fill="none" xmlns="http://www.w3.org/2000/svg">
<rect x="259" y="475" width="384" height="401" rx="64" fill="white" fill-opacity="0.3"/>
<path d="M351.359 638.144L360.786 611.008H365.378L353.535 643H350.261L351.359 638.144ZM342.548 611.008L351.887 638.144L353.051 643H349.777L337.956 611.008H342.548ZM373.486 619.226V643H369.399V619.226H373.486ZM369.091 612.919C369.091 612.26 369.289 611.704 369.685 611.25C370.095 610.795 370.695 610.568 371.486 610.568C372.263 610.568 372.856 610.795 373.266 611.25C373.691 611.704 373.903 612.26 373.903 612.919C373.903 613.549 373.691 614.091 373.266 614.545C372.856 614.985 372.263 615.205 371.486 615.205C370.695 615.205 370.095 614.985 369.685 614.545C369.289 614.091 369.091 613.549 369.091 612.919ZM384.428 609.25V643H380.341V609.25H384.428ZM400.468 640.1C401.435 640.1 402.329 639.902 403.149 639.506C403.969 639.111 404.643 638.569 405.17 637.88C405.698 637.177 405.998 636.379 406.071 635.485H409.938C409.865 636.892 409.389 638.203 408.51 639.418C407.646 640.62 406.511 641.594 405.104 642.341C403.698 643.073 402.153 643.439 400.468 643.439C398.681 643.439 397.121 643.125 395.788 642.495C394.47 641.865 393.371 641 392.492 639.902C391.628 638.803 390.976 637.543 390.537 636.123C390.112 634.687 389.899 633.171 389.899 631.574V630.651C389.899 629.055 390.112 627.546 390.537 626.125C390.976 624.689 391.628 623.422 392.492 622.324C393.371 621.225 394.47 620.361 395.788 619.731C397.121 619.101 398.681 618.786 400.468 618.786C402.329 618.786 403.955 619.167 405.346 619.929C406.738 620.676 407.829 621.701 408.62 623.005C409.426 624.294 409.865 625.759 409.938 627.399H406.071C405.998 626.418 405.72 625.532 405.236 624.741C404.768 623.95 404.123 623.32 403.303 622.851C402.497 622.368 401.552 622.126 400.468 622.126C399.223 622.126 398.176 622.375 397.326 622.873C396.491 623.356 395.825 624.016 395.327 624.851C394.843 625.671 394.492 626.586 394.272 627.597C394.067 628.593 393.964 629.611 393.964 630.651V631.574C393.964 632.614 394.067 633.64 394.272 634.65C394.477 635.661 394.821 636.577 395.305 637.397C395.803 638.217 396.469 638.876 397.304 639.375C398.154 639.858 399.208 640.1 400.468 640.1ZM428.527 638.935V626.696C428.527 625.759 428.337 624.946 427.956 624.257C427.59 623.554 427.033 623.012 426.286 622.631C425.539 622.25 424.616 622.06 423.518 622.06C422.492 622.06 421.591 622.236 420.815 622.587C420.053 622.939 419.453 623.4 419.013 623.972C418.588 624.543 418.376 625.158 418.376 625.817H414.311C414.311 624.968 414.531 624.125 414.97 623.291C415.41 622.456 416.04 621.701 416.86 621.027C417.695 620.339 418.691 619.797 419.848 619.401C421.02 618.991 422.324 618.786 423.759 618.786C425.488 618.786 427.011 619.079 428.33 619.665C429.663 620.251 430.703 621.137 431.45 622.324C432.211 623.496 432.592 624.968 432.592 626.74V637.814C432.592 638.605 432.658 639.448 432.79 640.341C432.937 641.235 433.149 642.004 433.427 642.648V643H429.187C428.981 642.531 428.82 641.909 428.703 641.132C428.586 640.341 428.527 639.609 428.527 638.935ZM429.23 628.586L429.274 631.442H425.166C424.008 631.442 422.976 631.538 422.067 631.728C421.159 631.904 420.397 632.175 419.782 632.541C419.167 632.907 418.698 633.369 418.376 633.925C418.054 634.467 417.893 635.104 417.893 635.837C417.893 636.584 418.061 637.265 418.398 637.88C418.735 638.496 419.24 638.986 419.914 639.353C420.603 639.704 421.445 639.88 422.441 639.88C423.686 639.88 424.785 639.616 425.737 639.089C426.689 638.562 427.443 637.917 428 637.155C428.571 636.394 428.879 635.654 428.923 634.936L430.659 636.892C430.556 637.507 430.278 638.188 429.824 638.935C429.37 639.682 428.762 640.4 428 641.088C427.253 641.762 426.359 642.326 425.319 642.78C424.294 643.22 423.137 643.439 421.848 643.439C420.236 643.439 418.823 643.125 417.607 642.495C416.406 641.865 415.468 641.022 414.794 639.968C414.135 638.898 413.806 637.705 413.806 636.386C413.806 635.112 414.055 633.991 414.553 633.024C415.051 632.043 415.769 631.23 416.706 630.585C417.644 629.926 418.771 629.428 420.09 629.091C421.408 628.754 422.88 628.586 424.506 628.586H429.23ZM438.964 609.25H443.051V638.386L442.7 643H438.964V609.25ZM459.113 630.915V631.376C459.113 633.105 458.908 634.709 458.498 636.188C458.088 637.653 457.487 638.928 456.696 640.012C455.905 641.096 454.938 641.938 453.796 642.539C452.653 643.139 451.342 643.439 449.863 643.439C448.354 643.439 447.028 643.183 445.886 642.67C444.758 642.143 443.806 641.389 443.029 640.407C442.253 639.426 441.63 638.239 441.162 636.848C440.708 635.456 440.393 633.889 440.217 632.146V630.124C440.393 628.366 440.708 626.792 441.162 625.4C441.63 624.008 442.253 622.822 443.029 621.84C443.806 620.844 444.758 620.09 445.886 619.577C447.014 619.05 448.325 618.786 449.819 618.786C451.313 618.786 452.639 619.079 453.796 619.665C454.953 620.236 455.92 621.057 456.696 622.126C457.487 623.195 458.088 624.477 458.498 625.971C458.908 627.451 459.113 629.099 459.113 630.915ZM455.026 631.376V630.915C455.026 629.729 454.917 628.615 454.697 627.575C454.477 626.521 454.125 625.598 453.642 624.807C453.159 624.001 452.521 623.371 451.73 622.917C450.939 622.448 449.965 622.214 448.808 622.214C447.783 622.214 446.889 622.39 446.127 622.741C445.38 623.093 444.743 623.569 444.216 624.169C443.688 624.755 443.256 625.429 442.919 626.191C442.597 626.938 442.355 627.714 442.194 628.52V633.815C442.429 634.841 442.81 635.83 443.337 636.782C443.879 637.719 444.597 638.488 445.49 639.089C446.398 639.689 447.519 639.99 448.852 639.99C449.951 639.99 450.888 639.77 451.665 639.331C452.456 638.876 453.093 638.254 453.576 637.463C454.074 636.672 454.44 635.756 454.675 634.716C454.909 633.676 455.026 632.563 455.026 631.376ZM478.273 638.935V626.696C478.273 625.759 478.083 624.946 477.702 624.257C477.336 623.554 476.779 623.012 476.032 622.631C475.285 622.25 474.362 622.06 473.264 622.06C472.238 622.06 471.337 622.236 470.561 622.587C469.799 622.939 469.199 623.4 468.759 623.972C468.334 624.543 468.122 625.158 468.122 625.817H464.057C464.057 624.968 464.277 624.125 464.716 623.291C465.156 622.456 465.786 621.701 466.606 621.027C467.441 620.339 468.437 619.797 469.594 619.401C470.766 618.991 472.07 618.786 473.505 618.786C475.234 618.786 476.757 619.079 478.076 619.665C479.409 620.251 480.449 621.137 481.196 622.324C481.958 623.496 482.338 624.968 482.338 626.74V637.814C482.338 638.605 482.404 639.448 482.536 640.341C482.683 641.235 482.895 642.004 483.173 642.648V643H478.933C478.728 642.531 478.566 641.909 478.449 641.132C478.332 640.341 478.273 639.609 478.273 638.935ZM478.977 628.586L479.021 631.442H474.912C473.754 631.442 472.722 631.538 471.813 631.728C470.905 631.904 470.144 632.175 469.528 632.541C468.913 632.907 468.444 633.369 468.122 633.925C467.8 634.467 467.639 635.104 467.639 635.837C467.639 636.584 467.807 637.265 468.144 637.88C468.481 638.496 468.986 638.986 469.66 639.353C470.349 639.704 471.191 639.88 472.187 639.88C473.432 639.88 474.531 639.616 475.483 639.089C476.435 638.562 477.189 637.917 477.746 637.155C478.317 636.394 478.625 635.654 478.669 634.936L480.405 636.892C480.302 637.507 480.024 638.188 479.57 638.935C479.116 639.682 478.508 640.4 477.746 641.088C476.999 641.762 476.105 642.326 475.065 642.78C474.04 643.22 472.883 643.439 471.594 643.439C469.982 643.439 468.569 643.125 467.353 642.495C466.152 641.865 465.214 641.022 464.541 639.968C463.881 638.898 463.552 637.705 463.552 636.386C463.552 635.112 463.801 633.991 464.299 633.024C464.797 632.043 465.515 631.23 466.452 630.585C467.39 629.926 468.518 629.428 469.836 629.091C471.154 628.754 472.626 628.586 474.252 628.586H478.977ZM492.775 623.95V643H488.688V619.226H492.556L492.775 623.95ZM491.94 630.212L490.051 630.146C490.065 628.52 490.278 627.019 490.688 625.642C491.098 624.25 491.706 623.042 492.512 622.016C493.317 620.991 494.321 620.2 495.522 619.643C496.723 619.072 498.115 618.786 499.697 618.786C500.81 618.786 501.835 618.947 502.773 619.27C503.71 619.577 504.523 620.068 505.212 620.742C505.9 621.416 506.435 622.28 506.816 623.334C507.197 624.389 507.387 625.664 507.387 627.158V643H503.322V627.355C503.322 626.11 503.11 625.114 502.685 624.367C502.275 623.62 501.689 623.078 500.927 622.741C500.166 622.39 499.272 622.214 498.247 622.214C497.045 622.214 496.042 622.426 495.236 622.851C494.431 623.276 493.786 623.862 493.303 624.609C492.819 625.356 492.468 626.213 492.248 627.18C492.043 628.132 491.94 629.143 491.94 630.212ZM507.343 627.971L504.619 628.806C504.633 627.502 504.846 626.25 505.256 625.048C505.681 623.847 506.289 622.778 507.08 621.84C507.885 620.903 508.874 620.163 510.046 619.621C511.218 619.064 512.558 618.786 514.067 618.786C515.341 618.786 516.469 618.955 517.451 619.292C518.447 619.628 519.282 620.148 519.956 620.852C520.644 621.54 521.164 622.426 521.516 623.51C521.867 624.594 522.043 625.883 522.043 627.377V643H517.956V627.333C517.956 626 517.744 624.968 517.319 624.235C516.909 623.488 516.323 622.968 515.561 622.675C514.814 622.368 513.92 622.214 512.88 622.214C511.987 622.214 511.196 622.368 510.507 622.675C509.819 622.983 509.24 623.408 508.771 623.95C508.303 624.477 507.944 625.085 507.695 625.773C507.46 626.462 507.343 627.194 507.343 627.971ZM528.173 609.25H532.26V638.386L531.909 643H528.173V609.25ZM548.322 630.915V631.376C548.322 633.105 548.117 634.709 547.707 636.188C547.297 637.653 546.696 638.928 545.905 640.012C545.114 641.096 544.147 641.938 543.005 642.539C541.862 643.139 540.551 643.439 539.072 643.439C537.563 643.439 536.237 643.183 535.095 642.67C533.967 642.143 533.015 641.389 532.238 640.407C531.462 639.426 530.839 638.239 530.371 636.848C529.917 635.456 529.602 633.889 529.426 632.146V630.124C529.602 628.366 529.917 626.792 530.371 625.4C530.839 624.008 531.462 622.822 532.238 621.84C533.015 620.844 533.967 620.09 535.095 619.577C536.223 619.05 537.534 618.786 539.028 618.786C540.522 618.786 541.848 619.079 543.005 619.665C544.162 620.236 545.129 621.057 545.905 622.126C546.696 623.195 547.297 624.477 547.707 625.971C548.117 627.451 548.322 629.099 548.322 630.915ZM544.235 631.376V630.915C544.235 629.729 544.125 628.615 543.906 627.575C543.686 626.521 543.334 625.598 542.851 624.807C542.368 624.001 541.73 623.371 540.939 622.917C540.148 622.448 539.174 622.214 538.017 622.214C536.992 622.214 536.098 622.39 535.336 622.741C534.589 623.093 533.952 623.569 533.425 624.169C532.897 624.755 532.465 625.429 532.128 626.191C531.806 626.938 531.564 627.714 531.403 628.52V633.815C531.638 634.841 532.019 635.83 532.546 636.782C533.088 637.719 533.806 638.488 534.699 639.089C535.607 639.689 536.728 639.99 538.061 639.99C539.16 639.99 540.097 639.77 540.874 639.331C541.665 638.876 542.302 638.254 542.785 637.463C543.283 636.672 543.649 635.756 543.884 634.716C544.118 633.676 544.235 632.563 544.235 631.376ZM567.482 638.935V626.696C567.482 625.759 567.292 624.946 566.911 624.257C566.545 623.554 565.988 623.012 565.241 622.631C564.494 622.25 563.571 622.06 562.473 622.06C561.447 622.06 560.546 622.236 559.77 622.587C559.008 622.939 558.408 623.4 557.968 623.972C557.543 624.543 557.331 625.158 557.331 625.817H553.266C553.266 624.968 553.486 624.125 553.925 623.291C554.365 622.456 554.995 621.701 555.815 621.027C556.65 620.339 557.646 619.797 558.803 619.401C559.975 618.991 561.279 618.786 562.714 618.786C564.443 618.786 565.966 619.079 567.285 619.665C568.618 620.251 569.658 621.137 570.405 622.324C571.167 623.496 571.547 624.968 571.547 626.74V637.814C571.547 638.605 571.613 639.448 571.745 640.341C571.892 641.235 572.104 642.004 572.382 642.648V643H568.142C567.937 642.531 567.775 641.909 567.658 641.132C567.541 640.341 567.482 639.609 567.482 638.935ZM568.186 628.586L568.229 631.442H564.121C562.963 631.442 561.931 631.538 561.022 631.728C560.114 631.904 559.353 632.175 558.737 632.541C558.122 632.907 557.653 633.369 557.331 633.925C557.009 634.467 556.848 635.104 556.848 635.837C556.848 636.584 557.016 637.265 557.353 637.88C557.69 638.496 558.195 638.986 558.869 639.353C559.558 639.704 560.4 639.88 561.396 639.88C562.641 639.88 563.74 639.616 564.692 639.089C565.644 638.562 566.398 637.917 566.955 637.155C567.526 636.394 567.834 635.654 567.878 634.936L569.614 636.892C569.511 637.507 569.233 638.188 568.779 638.935C568.325 639.682 567.717 640.4 566.955 641.088C566.208 641.762 565.314 642.326 564.274 642.78C563.249 643.22 562.092 643.439 560.803 643.439C559.191 643.439 557.778 643.125 556.562 642.495C555.361 641.865 554.423 641.022 553.75 639.968C553.09 638.898 552.761 637.705 552.761 636.386C552.761 635.112 553.01 633.991 553.508 633.024C554.006 632.043 554.724 631.23 555.661 630.585C556.599 629.926 557.727 629.428 559.045 629.091C560.363 628.754 561.835 628.586 563.461 628.586H568.186ZM395.173 683.454H386.625V680.004H395.173C396.828 680.004 398.168 679.74 399.194 679.213C400.219 678.686 400.966 677.953 401.435 677.016C401.918 676.078 402.16 675.009 402.16 673.808C402.16 672.709 401.918 671.676 401.435 670.709C400.966 669.743 400.219 668.966 399.194 668.38C398.168 667.78 396.828 667.479 395.173 667.479H387.614V696H383.374V664.008H395.173C397.59 664.008 399.633 664.425 401.303 665.26C402.973 666.095 404.24 667.252 405.104 668.732C405.969 670.197 406.401 671.874 406.401 673.764C406.401 675.814 405.969 677.565 405.104 679.015C404.24 680.465 402.973 681.571 401.303 682.333C399.633 683.08 397.59 683.454 395.173 683.454ZM424.902 691.935V679.696C424.902 678.759 424.711 677.946 424.331 677.257C423.964 676.554 423.408 676.012 422.661 675.631C421.914 675.25 420.991 675.06 419.892 675.06C418.867 675.06 417.966 675.236 417.189 675.587C416.428 675.939 415.827 676.4 415.388 676.972C414.963 677.543 414.75 678.158 414.75 678.817H410.686C410.686 677.968 410.905 677.125 411.345 676.291C411.784 675.456 412.414 674.701 413.234 674.027C414.069 673.339 415.065 672.797 416.223 672.401C417.395 671.991 418.698 671.786 420.134 671.786C421.862 671.786 423.386 672.079 424.704 672.665C426.037 673.251 427.077 674.137 427.824 675.324C428.586 676.496 428.967 677.968 428.967 679.74V690.814C428.967 691.605 429.033 692.448 429.165 693.341C429.311 694.235 429.523 695.004 429.802 695.648V696H425.561C425.356 695.531 425.195 694.909 425.078 694.132C424.96 693.341 424.902 692.609 424.902 691.935ZM425.605 681.586L425.649 684.442H421.54C420.383 684.442 419.35 684.538 418.442 684.728C417.534 684.904 416.772 685.175 416.157 685.541C415.542 685.907 415.073 686.369 414.75 686.925C414.428 687.467 414.267 688.104 414.267 688.837C414.267 689.584 414.436 690.265 414.772 690.88C415.109 691.496 415.615 691.986 416.289 692.353C416.977 692.704 417.819 692.88 418.815 692.88C420.061 692.88 421.159 692.616 422.111 692.089C423.063 691.562 423.818 690.917 424.375 690.155C424.946 689.394 425.253 688.654 425.297 687.936L427.033 689.892C426.931 690.507 426.652 691.188 426.198 691.935C425.744 692.682 425.136 693.4 424.375 694.088C423.627 694.762 422.734 695.326 421.694 695.78C420.668 696.22 419.511 696.439 418.222 696.439C416.611 696.439 415.197 696.125 413.981 695.495C412.78 694.865 411.843 694.022 411.169 692.968C410.51 691.898 410.18 690.705 410.18 689.386C410.18 688.112 410.429 686.991 410.927 686.024C411.425 685.043 412.143 684.23 413.081 683.585C414.018 682.926 415.146 682.428 416.464 682.091C417.783 681.754 419.255 681.586 420.881 681.586H425.605ZM439.426 675.961V696H435.361V672.226H439.316L439.426 675.961ZM446.853 672.094L446.831 675.873C446.494 675.8 446.171 675.756 445.864 675.741C445.571 675.712 445.234 675.697 444.853 675.697C443.916 675.697 443.088 675.844 442.37 676.137C441.652 676.43 441.044 676.84 440.546 677.367C440.048 677.895 439.653 678.524 439.36 679.257C439.082 679.975 438.898 680.766 438.811 681.63L437.668 682.289C437.668 680.854 437.807 679.506 438.085 678.246C438.378 676.986 438.825 675.873 439.426 674.906C440.026 673.925 440.788 673.163 441.711 672.621C442.648 672.064 443.762 671.786 445.051 671.786C445.344 671.786 445.681 671.823 446.062 671.896C446.442 671.955 446.706 672.021 446.853 672.094ZM465.134 705.141V676.796L465.485 672.226H469.221V705.141H465.134ZM449.16 684.376V683.915C449.16 682.099 449.372 680.451 449.797 678.971C450.222 677.477 450.844 676.195 451.665 675.126C452.485 674.057 453.474 673.236 454.631 672.665C455.803 672.079 457.136 671.786 458.63 671.786C460.124 671.786 461.435 672.05 462.563 672.577C463.706 673.09 464.672 673.844 465.463 674.84C466.269 675.822 466.906 677.008 467.375 678.4C467.844 679.792 468.166 681.366 468.342 683.124V685.146C468.181 686.889 467.866 688.456 467.397 689.848C466.928 691.239 466.291 692.426 465.485 693.407C464.694 694.389 463.72 695.143 462.563 695.67C461.42 696.183 460.095 696.439 458.586 696.439C457.121 696.439 455.803 696.139 454.631 695.539C453.474 694.938 452.485 694.096 451.665 693.012C450.859 691.928 450.236 690.653 449.797 689.188C449.372 687.709 449.16 686.105 449.16 684.376ZM453.247 683.915V684.376C453.247 685.563 453.371 686.684 453.62 687.738C453.869 688.778 454.25 689.701 454.763 690.507C455.29 691.312 455.949 691.95 456.74 692.418C457.546 692.873 458.498 693.1 459.597 693.1C460.944 693.1 462.065 692.807 462.958 692.221C463.867 691.635 464.592 690.866 465.134 689.914C465.676 688.947 466.093 687.914 466.386 686.815V681.52C466.225 680.714 465.969 679.931 465.617 679.169C465.28 678.407 464.841 677.726 464.299 677.125C463.757 676.51 463.098 676.027 462.321 675.675C461.56 675.309 460.666 675.126 459.641 675.126C458.527 675.126 457.568 675.36 456.762 675.829C455.957 676.298 455.29 676.942 454.763 677.763C454.25 678.568 453.869 679.499 453.62 680.553C453.371 681.608 453.247 682.729 453.247 683.915ZM490.292 690.507V672.226H494.379V696H490.49L490.292 690.507ZM491.062 685.497L492.753 685.453C492.753 687.035 492.585 688.5 492.248 689.848C491.926 691.181 491.398 692.338 490.666 693.319C489.934 694.301 488.974 695.07 487.788 695.626C486.601 696.168 485.158 696.439 483.459 696.439C482.302 696.439 481.24 696.271 480.273 695.934C479.321 695.597 478.5 695.077 477.812 694.374C477.124 693.671 476.589 692.755 476.208 691.627C475.842 690.5 475.659 689.145 475.659 687.562V672.226H479.724V687.606C479.724 688.676 479.841 689.562 480.075 690.265C480.324 690.954 480.654 691.503 481.064 691.913C481.489 692.309 481.958 692.587 482.47 692.748C482.998 692.909 483.54 692.99 484.096 692.99C485.825 692.99 487.194 692.66 488.205 692.001C489.216 691.327 489.941 690.426 490.38 689.298C490.834 688.156 491.062 686.889 491.062 685.497ZM510.441 696.439C508.786 696.439 507.285 696.161 505.937 695.604C504.604 695.033 503.454 694.235 502.487 693.209C501.535 692.184 500.803 690.968 500.29 689.562C499.777 688.156 499.521 686.618 499.521 684.948V684.025C499.521 682.091 499.807 680.37 500.378 678.861C500.949 677.338 501.726 676.049 502.707 674.994C503.688 673.939 504.802 673.141 506.047 672.599C507.292 672.057 508.581 671.786 509.914 671.786C511.613 671.786 513.078 672.079 514.309 672.665C515.554 673.251 516.572 674.071 517.363 675.126C518.154 676.166 518.74 677.396 519.121 678.817C519.501 680.224 519.692 681.762 519.692 683.432V685.255H501.938V681.938H515.627V681.63C515.568 680.575 515.349 679.55 514.968 678.554C514.602 677.558 514.016 676.737 513.21 676.093C512.404 675.448 511.306 675.126 509.914 675.126C508.991 675.126 508.142 675.324 507.365 675.719C506.589 676.1 505.922 676.671 505.366 677.433C504.809 678.195 504.377 679.125 504.069 680.224C503.762 681.322 503.608 682.589 503.608 684.025V684.948C503.608 686.076 503.762 687.138 504.069 688.134C504.392 689.115 504.853 689.979 505.454 690.727C506.069 691.474 506.809 692.06 507.673 692.484C508.552 692.909 509.548 693.122 510.661 693.122C512.097 693.122 513.312 692.829 514.309 692.243C515.305 691.657 516.176 690.873 516.923 689.892L519.384 691.847C518.872 692.624 518.22 693.363 517.429 694.066C516.638 694.77 515.664 695.341 514.506 695.78C513.364 696.22 512.009 696.439 510.441 696.439ZM402.248 738.827H406.467C406.247 740.848 405.668 742.657 404.731 744.254C403.793 745.851 402.468 747.118 400.754 748.055C399.04 748.978 396.901 749.439 394.338 749.439C392.463 749.439 390.756 749.088 389.218 748.385C387.695 747.682 386.384 746.686 385.285 745.396C384.187 744.093 383.337 742.533 382.736 740.716C382.15 738.885 381.857 736.849 381.857 734.608V731.422C381.857 729.181 382.15 727.152 382.736 725.335C383.337 723.504 384.194 721.937 385.307 720.633C386.435 719.33 387.79 718.326 389.372 717.623C390.954 716.92 392.734 716.568 394.711 716.568C397.128 716.568 399.172 717.022 400.842 717.931C402.512 718.839 403.808 720.099 404.731 721.71C405.668 723.307 406.247 725.16 406.467 727.269H402.248C402.043 725.775 401.662 724.493 401.105 723.424C400.549 722.34 399.758 721.505 398.732 720.919C397.707 720.333 396.367 720.04 394.711 720.04C393.291 720.04 392.038 720.311 390.954 720.853C389.885 721.395 388.984 722.164 388.251 723.16C387.534 724.156 386.992 725.35 386.625 726.742C386.259 728.133 386.076 729.679 386.076 731.378V734.608C386.076 736.175 386.237 737.647 386.56 739.024C386.896 740.401 387.402 741.61 388.076 742.65C388.75 743.69 389.606 744.51 390.646 745.111C391.687 745.697 392.917 745.99 394.338 745.99C396.14 745.99 397.575 745.704 398.645 745.133C399.714 744.562 400.52 743.741 401.062 742.672C401.618 741.603 402.014 740.321 402.248 738.827ZM421.496 749.439C419.841 749.439 418.339 749.161 416.992 748.604C415.659 748.033 414.509 747.235 413.542 746.209C412.59 745.184 411.857 743.968 411.345 742.562C410.832 741.156 410.576 739.618 410.576 737.948V737.025C410.576 735.091 410.861 733.37 411.433 731.861C412.004 730.338 412.78 729.049 413.762 727.994C414.743 726.939 415.856 726.141 417.102 725.599C418.347 725.057 419.636 724.786 420.969 724.786C422.668 724.786 424.133 725.079 425.363 725.665C426.608 726.251 427.626 727.071 428.417 728.126C429.208 729.166 429.794 730.396 430.175 731.817C430.556 733.224 430.747 734.762 430.747 736.432V738.255H412.993V734.938H426.682V734.63C426.623 733.575 426.403 732.55 426.022 731.554C425.656 730.558 425.07 729.737 424.265 729.093C423.459 728.448 422.36 728.126 420.969 728.126C420.046 728.126 419.196 728.324 418.42 728.719C417.644 729.1 416.977 729.671 416.42 730.433C415.864 731.195 415.432 732.125 415.124 733.224C414.816 734.322 414.663 735.589 414.663 737.025V737.948C414.663 739.076 414.816 740.138 415.124 741.134C415.446 742.115 415.908 742.979 416.508 743.727C417.124 744.474 417.863 745.06 418.728 745.484C419.606 745.909 420.603 746.122 421.716 746.122C423.151 746.122 424.367 745.829 425.363 745.243C426.359 744.657 427.231 743.873 427.978 742.892L430.439 744.847C429.926 745.624 429.274 746.363 428.483 747.066C427.692 747.77 426.718 748.341 425.561 748.78C424.418 749.22 423.063 749.439 421.496 749.439ZM439.558 730.301V749H435.493V725.226H439.338L439.558 730.301ZM438.591 736.212L436.899 736.146C436.914 734.52 437.155 733.019 437.624 731.642C438.093 730.25 438.752 729.042 439.602 728.016C440.451 726.991 441.462 726.2 442.634 725.643C443.82 725.072 445.131 724.786 446.567 724.786C447.739 724.786 448.793 724.947 449.731 725.27C450.668 725.577 451.467 726.075 452.126 726.764C452.8 727.452 453.312 728.346 453.664 729.444C454.016 730.528 454.191 731.854 454.191 733.421V749H450.104V733.377C450.104 732.132 449.921 731.136 449.555 730.389C449.189 729.627 448.654 729.078 447.951 728.741C447.248 728.39 446.384 728.214 445.358 728.214C444.348 728.214 443.425 728.426 442.59 728.851C441.77 729.276 441.059 729.862 440.458 730.609C439.873 731.356 439.411 732.213 439.074 733.18C438.752 734.132 438.591 735.143 438.591 736.212ZM470.319 725.226V728.346H457.465V725.226H470.319ZM461.816 719.447H465.881V743.111C465.881 743.917 466.005 744.525 466.254 744.935C466.503 745.345 466.826 745.616 467.221 745.748C467.617 745.88 468.042 745.946 468.496 745.946C468.833 745.946 469.184 745.917 469.55 745.858C469.931 745.785 470.217 745.726 470.407 745.682L470.429 749C470.107 749.103 469.682 749.198 469.155 749.286C468.642 749.388 468.02 749.439 467.287 749.439C466.291 749.439 465.375 749.242 464.541 748.846C463.706 748.451 463.039 747.792 462.541 746.869C462.058 745.931 461.816 744.671 461.816 743.089V719.447ZM479.152 728.961V749H475.087V725.226H479.042L479.152 728.961ZM486.579 725.094L486.557 728.873C486.22 728.8 485.898 728.756 485.59 728.741C485.297 728.712 484.96 728.697 484.58 728.697C483.642 728.697 482.814 728.844 482.097 729.137C481.379 729.43 480.771 729.84 480.273 730.367C479.775 730.895 479.379 731.524 479.086 732.257C478.808 732.975 478.625 733.766 478.537 734.63L477.395 735.289C477.395 733.854 477.534 732.506 477.812 731.246C478.105 729.986 478.552 728.873 479.152 727.906C479.753 726.925 480.515 726.163 481.438 725.621C482.375 725.064 483.488 724.786 484.777 724.786C485.07 724.786 485.407 724.823 485.788 724.896C486.169 724.955 486.433 725.021 486.579 725.094ZM503.476 744.935V732.696C503.476 731.759 503.286 730.946 502.905 730.257C502.539 729.554 501.982 729.012 501.235 728.631C500.488 728.25 499.565 728.06 498.466 728.06C497.441 728.06 496.54 728.236 495.764 728.587C495.002 728.939 494.401 729.4 493.962 729.972C493.537 730.543 493.325 731.158 493.325 731.817H489.26C489.26 730.968 489.479 730.125 489.919 729.291C490.358 728.456 490.988 727.701 491.809 727.027C492.644 726.339 493.64 725.797 494.797 725.401C495.969 724.991 497.272 724.786 498.708 724.786C500.437 724.786 501.96 725.079 503.278 725.665C504.611 726.251 505.651 727.137 506.398 728.324C507.16 729.496 507.541 730.968 507.541 732.74V743.814C507.541 744.605 507.607 745.448 507.739 746.341C507.885 747.235 508.098 748.004 508.376 748.648V749H504.135C503.93 748.531 503.769 747.909 503.652 747.132C503.535 746.341 503.476 745.609 503.476 744.935ZM504.179 734.586L504.223 737.442H500.114C498.957 737.442 497.924 737.538 497.016 737.728C496.108 737.904 495.346 738.175 494.731 738.541C494.116 738.907 493.647 739.369 493.325 739.925C493.002 740.467 492.841 741.104 492.841 741.837C492.841 742.584 493.01 743.265 493.347 743.88C493.684 744.496 494.189 744.986 494.863 745.353C495.551 745.704 496.394 745.88 497.39 745.88C498.635 745.88 499.733 745.616 500.686 745.089C501.638 744.562 502.392 743.917 502.949 743.155C503.52 742.394 503.828 741.654 503.872 740.936L505.607 742.892C505.505 743.507 505.227 744.188 504.772 744.935C504.318 745.682 503.71 746.4 502.949 747.088C502.202 747.762 501.308 748.326 500.268 748.78C499.243 749.22 498.085 749.439 496.796 749.439C495.185 749.439 493.771 749.125 492.556 748.495C491.354 747.865 490.417 747.022 489.743 745.968C489.084 744.898 488.754 743.705 488.754 742.386C488.754 741.112 489.003 739.991 489.501 739.024C490 738.043 490.717 737.23 491.655 736.585C492.592 735.926 493.72 735.428 495.039 735.091C496.357 734.754 497.829 734.586 499.455 734.586H504.179ZM518.352 715.25V749H514.265V715.25H518.352Z" fill="white"/>
<path d="M451 126L493.435 357H408.565L451 126Z" fill="#808080"/>
<rect x="344" y="338" width="213" height="83" fill="#808080"/>
<path d="M389.515 371.226V395H385.428V371.226H389.515ZM385.12 364.919C385.12 364.26 385.318 363.704 385.713 363.25C386.124 362.795 386.724 362.568 387.515 362.568C388.292 362.568 388.885 362.795 389.295 363.25C389.72 363.704 389.932 364.26 389.932 364.919C389.932 365.549 389.72 366.091 389.295 366.545C388.885 366.985 388.292 367.205 387.515 367.205C386.724 367.205 386.124 366.985 385.713 366.545C385.318 366.091 385.12 365.549 385.12 364.919ZM411.443 371.226H415.135V394.495C415.135 396.589 414.71 398.376 413.86 399.856C413.011 401.335 411.824 402.456 410.301 403.218C408.792 403.994 407.049 404.382 405.071 404.382C404.251 404.382 403.284 404.25 402.171 403.987C401.072 403.738 399.988 403.306 398.919 402.69C397.864 402.09 396.978 401.277 396.26 400.251L398.392 397.834C399.388 399.036 400.428 399.871 401.512 400.339C402.61 400.808 403.694 401.042 404.764 401.042C406.053 401.042 407.166 400.801 408.104 400.317C409.041 399.834 409.766 399.116 410.279 398.164C410.806 397.227 411.07 396.069 411.07 394.692V376.455L411.443 371.226ZM395.074 383.376V382.915C395.074 381.099 395.286 379.451 395.711 377.971C396.15 376.477 396.773 375.195 397.579 374.126C398.399 373.057 399.388 372.236 400.545 371.665C401.702 371.079 403.006 370.786 404.456 370.786C405.95 370.786 407.254 371.05 408.367 371.577C409.495 372.09 410.447 372.844 411.224 373.84C412.015 374.822 412.637 376.008 413.091 377.4C413.545 378.792 413.86 380.366 414.036 382.124V384.146C413.875 385.889 413.56 387.456 413.091 388.848C412.637 390.239 412.015 391.426 411.224 392.407C410.447 393.389 409.495 394.143 408.367 394.67C407.239 395.183 405.921 395.439 404.412 395.439C402.991 395.439 401.702 395.139 400.545 394.539C399.402 393.938 398.421 393.096 397.601 392.012C396.78 390.928 396.15 389.653 395.711 388.188C395.286 386.709 395.074 385.105 395.074 383.376ZM399.139 382.915V383.376C399.139 384.563 399.256 385.676 399.49 386.716C399.739 387.756 400.113 388.672 400.611 389.463C401.124 390.254 401.775 390.876 402.566 391.331C403.357 391.77 404.302 391.99 405.401 391.99C406.749 391.99 407.862 391.704 408.741 391.133C409.62 390.562 410.315 389.807 410.828 388.87C411.355 387.932 411.766 386.914 412.059 385.815V380.52C411.897 379.714 411.648 378.938 411.312 378.191C410.989 377.429 410.564 376.755 410.037 376.169C409.524 375.569 408.887 375.093 408.125 374.741C407.364 374.39 406.47 374.214 405.445 374.214C404.332 374.214 403.372 374.448 402.566 374.917C401.775 375.371 401.124 376.001 400.611 376.807C400.113 377.598 399.739 378.521 399.49 379.575C399.256 380.615 399.139 381.729 399.139 382.915ZM425.726 361.25V395H421.639V361.25H425.726ZM442.117 395.439C440.462 395.439 438.96 395.161 437.613 394.604C436.28 394.033 435.13 393.235 434.163 392.209C433.211 391.184 432.479 389.968 431.966 388.562C431.453 387.156 431.197 385.618 431.197 383.948V383.025C431.197 381.091 431.482 379.37 432.054 377.861C432.625 376.338 433.401 375.049 434.383 373.994C435.364 372.939 436.478 372.141 437.723 371.599C438.968 371.057 440.257 370.786 441.59 370.786C443.289 370.786 444.754 371.079 445.984 371.665C447.229 372.251 448.248 373.071 449.039 374.126C449.83 375.166 450.416 376.396 450.796 377.817C451.177 379.224 451.368 380.762 451.368 382.432V384.255H433.614V380.938H447.303V380.63C447.244 379.575 447.024 378.55 446.644 377.554C446.277 376.558 445.691 375.737 444.886 375.093C444.08 374.448 442.981 374.126 441.59 374.126C440.667 374.126 439.817 374.324 439.041 374.719C438.265 375.1 437.598 375.671 437.042 376.433C436.485 377.195 436.053 378.125 435.745 379.224C435.438 380.322 435.284 381.589 435.284 383.025V383.948C435.284 385.076 435.438 386.138 435.745 387.134C436.067 388.115 436.529 388.979 437.129 389.727C437.745 390.474 438.484 391.06 439.349 391.484C440.228 391.909 441.224 392.122 442.337 392.122C443.772 392.122 444.988 391.829 445.984 391.243C446.98 390.657 447.852 389.873 448.599 388.892L451.06 390.847C450.547 391.624 449.896 392.363 449.104 393.066C448.313 393.77 447.339 394.341 446.182 394.78C445.04 395.22 443.685 395.439 442.117 395.439ZM469.957 388.694C469.957 388.108 469.825 387.566 469.561 387.068C469.312 386.555 468.792 386.094 468.001 385.684C467.225 385.259 466.053 384.893 464.485 384.585C463.167 384.307 461.973 383.977 460.904 383.596C459.849 383.215 458.948 382.754 458.201 382.212C457.469 381.67 456.905 381.033 456.509 380.3C456.114 379.568 455.916 378.711 455.916 377.729C455.916 376.792 456.121 375.906 456.531 375.071C456.956 374.236 457.549 373.496 458.311 372.852C459.087 372.207 460.018 371.702 461.102 371.335C462.186 370.969 463.394 370.786 464.727 370.786C466.631 370.786 468.257 371.123 469.605 371.797C470.953 372.471 471.985 373.372 472.703 374.5C473.421 375.613 473.78 376.851 473.78 378.213H469.715C469.715 377.554 469.517 376.917 469.122 376.301C468.741 375.671 468.177 375.151 467.43 374.741C466.697 374.331 465.796 374.126 464.727 374.126C463.599 374.126 462.684 374.302 461.98 374.653C461.292 374.99 460.787 375.422 460.464 375.95C460.157 376.477 460.003 377.034 460.003 377.62C460.003 378.059 460.076 378.455 460.223 378.806C460.384 379.143 460.662 379.458 461.058 379.751C461.453 380.029 462.01 380.293 462.728 380.542C463.445 380.791 464.361 381.04 465.474 381.289C467.422 381.729 469.026 382.256 470.286 382.871C471.546 383.486 472.483 384.241 473.099 385.134C473.714 386.028 474.021 387.112 474.021 388.386C474.021 389.426 473.802 390.378 473.362 391.243C472.938 392.107 472.315 392.854 471.495 393.484C470.689 394.099 469.722 394.583 468.594 394.934C467.481 395.271 466.229 395.439 464.837 395.439C462.742 395.439 460.97 395.066 459.52 394.319C458.069 393.572 456.971 392.605 456.224 391.418C455.477 390.232 455.103 388.979 455.103 387.661H459.19C459.249 388.774 459.571 389.661 460.157 390.32C460.743 390.964 461.46 391.426 462.31 391.704C463.16 391.968 464.002 392.1 464.837 392.1C465.95 392.1 466.88 391.953 467.627 391.66C468.389 391.367 468.968 390.964 469.363 390.452C469.759 389.939 469.957 389.353 469.957 388.694ZM483.777 371.226V395H479.69V371.226H483.777ZM479.383 364.919C479.383 364.26 479.581 363.704 479.976 363.25C480.386 362.795 480.987 362.568 481.778 362.568C482.554 362.568 483.147 362.795 483.558 363.25C483.982 363.704 484.195 364.26 484.195 364.919C484.195 365.549 483.982 366.091 483.558 366.545C483.147 366.985 482.554 367.205 481.778 367.205C480.987 367.205 480.386 366.985 479.976 366.545C479.581 366.091 479.383 365.549 479.383 364.919ZM504.322 390.935V378.696C504.322 377.759 504.131 376.946 503.75 376.257C503.384 375.554 502.828 375.012 502.081 374.631C501.333 374.25 500.411 374.06 499.312 374.06C498.287 374.06 497.386 374.236 496.609 374.587C495.848 374.939 495.247 375.4 494.808 375.972C494.383 376.543 494.17 377.158 494.17 377.817H490.105C490.105 376.968 490.325 376.125 490.765 375.291C491.204 374.456 491.834 373.701 492.654 373.027C493.489 372.339 494.485 371.797 495.643 371.401C496.814 370.991 498.118 370.786 499.554 370.786C501.282 370.786 502.806 371.079 504.124 371.665C505.457 372.251 506.497 373.137 507.244 374.324C508.006 375.496 508.387 376.968 508.387 378.74V389.814C508.387 390.605 508.453 391.448 508.584 392.341C508.731 393.235 508.943 394.004 509.222 394.648V395H504.981C504.776 394.531 504.615 393.909 504.498 393.132C504.38 392.341 504.322 391.609 504.322 390.935ZM505.025 380.586L505.069 383.442H500.96C499.803 383.442 498.77 383.538 497.862 383.728C496.954 383.904 496.192 384.175 495.577 384.541C494.961 384.907 494.493 385.369 494.17 385.925C493.848 386.467 493.687 387.104 493.687 387.837C493.687 388.584 493.855 389.265 494.192 389.88C494.529 390.496 495.035 390.986 495.708 391.353C496.397 391.704 497.239 391.88 498.235 391.88C499.48 391.88 500.579 391.616 501.531 391.089C502.483 390.562 503.238 389.917 503.794 389.155C504.366 388.394 504.673 387.654 504.717 386.936L506.453 388.892C506.351 389.507 506.072 390.188 505.618 390.935C505.164 391.682 504.556 392.4 503.794 393.088C503.047 393.762 502.154 394.326 501.114 394.78C500.088 395.22 498.931 395.439 497.642 395.439C496.031 395.439 494.617 395.125 493.401 394.495C492.2 393.865 491.263 393.022 490.589 391.968C489.93 390.898 489.6 389.705 489.6 388.386C489.6 387.112 489.849 385.991 490.347 385.024C490.845 384.043 491.563 383.23 492.5 382.585C493.438 381.926 494.566 381.428 495.884 381.091C497.203 380.754 498.675 380.586 500.301 380.586H505.025Z" fill="white"/>
<path d="M859.021 212.131V233.262C858.191 234.263 856.91 235.349 855.176 236.521C853.443 237.668 851.209 238.657 848.475 239.487C845.74 240.317 842.432 240.732 838.55 240.732C835.108 240.732 831.971 240.171 829.139 239.048C826.307 237.9 823.865 236.228 821.814 234.031C819.788 231.833 818.226 229.148 817.127 225.974C816.028 222.776 815.479 219.126 815.479 215.024V211.692C815.479 207.59 816.004 203.94 817.054 200.742C818.128 197.544 819.654 194.846 821.631 192.649C823.609 190.452 825.965 188.779 828.699 187.632C831.434 186.484 834.473 185.911 837.818 185.911C842.457 185.911 846.265 186.667 849.244 188.181C852.222 189.67 854.493 191.746 856.055 194.407C857.642 197.043 858.619 200.071 858.985 203.489H848.328C848.06 201.682 847.547 200.107 846.79 198.765C846.033 197.422 844.947 196.372 843.531 195.615C842.139 194.858 840.333 194.48 838.111 194.48C836.28 194.48 834.644 194.858 833.204 195.615C831.788 196.348 830.591 197.434 829.615 198.875C828.638 200.315 827.894 202.097 827.381 204.221C826.868 206.345 826.612 208.811 826.612 211.619V215.024C826.612 217.808 826.88 220.273 827.417 222.422C827.955 224.546 828.748 226.34 829.798 227.805C830.872 229.246 832.19 230.332 833.753 231.064C835.315 231.797 837.134 232.163 839.209 232.163C840.943 232.163 842.383 232.017 843.531 231.724C844.703 231.431 845.643 231.077 846.351 230.662C847.083 230.222 847.645 229.807 848.035 229.417V219.968H838.001V212.131H859.021ZM911.683 212.095V214.622C911.683 218.674 911.133 222.312 910.035 225.535C908.936 228.757 907.386 231.504 905.384 233.774C903.382 236.021 900.989 237.742 898.206 238.938C895.447 240.134 892.383 240.732 889.014 240.732C885.669 240.732 882.605 240.134 879.822 238.938C877.063 237.742 874.671 236.021 872.645 233.774C870.618 231.504 869.043 228.757 867.92 225.535C866.822 222.312 866.272 218.674 866.272 214.622V212.095C866.272 208.018 866.822 204.38 867.92 201.182C869.019 197.959 870.569 195.212 872.571 192.942C874.598 190.671 876.99 188.938 879.749 187.742C882.532 186.545 885.596 185.947 888.941 185.947C892.31 185.947 895.374 186.545 898.133 187.742C900.916 188.938 903.309 190.671 905.311 192.942C907.337 195.212 908.899 197.959 909.998 201.182C911.121 204.38 911.683 208.018 911.683 212.095ZM900.586 214.622V212.021C900.586 209.189 900.33 206.699 899.817 204.551C899.305 202.402 898.548 200.596 897.547 199.131C896.546 197.666 895.325 196.567 893.885 195.835C892.444 195.078 890.796 194.7 888.941 194.7C887.085 194.7 885.438 195.078 883.997 195.835C882.581 196.567 881.373 197.666 880.372 199.131C879.395 200.596 878.65 202.402 878.138 204.551C877.625 206.699 877.369 209.189 877.369 212.021V214.622C877.369 217.429 877.625 219.919 878.138 222.092C878.65 224.241 879.407 226.06 880.408 227.549C881.409 229.014 882.63 230.125 884.07 230.881C885.511 231.638 887.159 232.017 889.014 232.017C890.87 232.017 892.518 231.638 893.958 230.881C895.398 230.125 896.607 229.014 897.583 227.549C898.56 226.06 899.305 224.241 899.817 222.092C900.33 219.919 900.586 217.429 900.586 214.622ZM919.593 186.68H939.478C943.555 186.68 947.059 187.29 949.988 188.511C952.942 189.731 955.213 191.538 956.8 193.931C958.387 196.323 959.18 199.265 959.18 202.756C959.18 205.613 958.692 208.066 957.715 210.117C956.763 212.144 955.408 213.84 953.65 215.208C951.917 216.55 949.878 217.625 947.535 218.43L944.056 220.261H926.771L926.697 211.692H939.551C941.48 211.692 943.079 211.35 944.349 210.667C945.618 209.983 946.57 209.031 947.205 207.81C947.864 206.589 948.194 205.173 948.194 203.562C948.194 201.853 947.876 200.376 947.242 199.131C946.607 197.886 945.643 196.934 944.349 196.274C943.055 195.615 941.431 195.286 939.478 195.286H930.579V240H919.593V186.68ZM949.402 240L937.244 216.233L948.853 216.16L961.158 239.487V240H949.402ZM984.009 240H972.4L972.474 231.431H984.009C986.89 231.431 989.319 230.784 991.297 229.49C993.274 228.171 994.764 226.255 995.765 223.74C996.79 221.226 997.303 218.186 997.303 214.622V212.021C997.303 209.287 997.01 206.882 996.424 204.807C995.862 202.732 995.02 200.986 993.897 199.57C992.774 198.154 991.395 197.092 989.759 196.384C988.123 195.652 986.243 195.286 984.119 195.286H972.181V186.68H984.119C987.684 186.68 990.943 187.29 993.897 188.511C996.875 189.707 999.451 191.428 1001.62 193.674C1003.8 195.92 1005.47 198.606 1006.64 201.731C1007.84 204.832 1008.44 208.286 1008.44 212.095V214.622C1008.44 218.406 1007.84 221.86 1006.64 224.985C1005.47 228.11 1003.8 230.796 1001.62 233.042C999.476 235.264 996.9 236.985 993.897 238.206C990.918 239.402 987.623 240 984.009 240ZM978.626 186.68V240H967.64V186.68H978.626ZM1060.22 212.095V214.622C1060.22 218.674 1059.67 222.312 1058.57 225.535C1057.47 228.757 1055.92 231.504 1053.92 233.774C1051.92 236.021 1049.52 237.742 1046.74 238.938C1043.98 240.134 1040.92 240.732 1037.55 240.732C1034.2 240.732 1031.14 240.134 1028.36 238.938C1025.6 237.742 1023.21 236.021 1021.18 233.774C1019.15 231.504 1017.58 228.757 1016.46 225.535C1015.36 222.312 1014.81 218.674 1014.81 214.622V212.095C1014.81 208.018 1015.36 204.38 1016.46 201.182C1017.55 197.959 1019.1 195.212 1021.11 192.942C1023.13 190.671 1025.53 188.938 1028.28 187.742C1031.07 186.545 1034.13 185.947 1037.48 185.947C1040.85 185.947 1043.91 186.545 1046.67 187.742C1049.45 188.938 1051.84 190.671 1053.85 192.942C1055.87 195.212 1057.43 197.959 1058.53 201.182C1059.66 204.38 1060.22 208.018 1060.22 212.095ZM1049.12 214.622V212.021C1049.12 209.189 1048.87 206.699 1048.35 204.551C1047.84 202.402 1047.08 200.596 1046.08 199.131C1045.08 197.666 1043.86 196.567 1042.42 195.835C1040.98 195.078 1039.33 194.7 1037.48 194.7C1035.62 194.7 1033.97 195.078 1032.53 195.835C1031.12 196.567 1029.91 197.666 1028.91 199.131C1027.93 200.596 1027.19 202.402 1026.67 204.551C1026.16 206.699 1025.9 209.189 1025.9 212.021V214.622C1025.9 217.429 1026.16 219.919 1026.67 222.092C1027.19 224.241 1027.94 226.06 1028.94 227.549C1029.94 229.014 1031.17 230.125 1032.61 230.881C1034.05 231.638 1035.69 232.017 1037.55 232.017C1039.4 232.017 1041.05 231.638 1042.49 230.881C1043.93 230.125 1045.14 229.014 1046.12 227.549C1047.1 226.06 1047.84 224.241 1048.35 222.092C1048.87 219.919 1049.12 217.429 1049.12 214.622ZM844.52 314.047C844.52 313.095 844.373 312.241 844.08 311.484C843.812 310.703 843.299 309.995 842.542 309.36C841.785 308.701 840.723 308.054 839.356 307.419C837.989 306.784 836.219 306.125 834.046 305.441C831.629 304.66 829.334 303.781 827.161 302.805C825.013 301.828 823.108 300.693 821.448 299.399C819.812 298.081 818.519 296.555 817.566 294.821C816.639 293.088 816.175 291.074 816.175 288.779C816.175 286.557 816.663 284.543 817.64 282.736C818.616 280.905 819.983 279.343 821.741 278.049C823.499 276.73 825.574 275.717 827.967 275.009C830.384 274.301 833.033 273.947 835.914 273.947C839.844 273.947 843.274 274.655 846.204 276.071C849.134 277.487 851.404 279.428 853.016 281.894C854.651 284.36 855.469 287.18 855.469 290.354H844.556C844.556 288.791 844.227 287.424 843.567 286.252C842.933 285.056 841.956 284.116 840.638 283.432C839.344 282.749 837.708 282.407 835.73 282.407C833.826 282.407 832.239 282.7 830.97 283.286C829.7 283.847 828.748 284.616 828.113 285.593C827.479 286.545 827.161 287.619 827.161 288.815C827.161 289.719 827.381 290.537 827.82 291.269C828.284 292.001 828.968 292.685 829.871 293.32C830.774 293.955 831.885 294.553 833.204 295.114C834.522 295.676 836.048 296.225 837.781 296.762C840.687 297.641 843.238 298.63 845.435 299.729C847.657 300.827 849.512 302.06 851.001 303.427C852.491 304.794 853.614 306.345 854.371 308.078C855.127 309.812 855.506 311.777 855.506 313.974C855.506 316.293 855.054 318.369 854.151 320.2C853.248 322.031 851.941 323.581 850.232 324.851C848.523 326.12 846.485 327.084 844.117 327.744C841.749 328.403 839.1 328.732 836.17 328.732C833.533 328.732 830.933 328.391 828.37 327.707C825.806 326.999 823.475 325.937 821.375 324.521C819.3 323.105 817.64 321.298 816.395 319.101C815.149 316.904 814.527 314.304 814.527 311.301H825.55C825.55 312.961 825.806 314.365 826.319 315.512C826.832 316.66 827.552 317.587 828.479 318.295C829.432 319.003 830.555 319.516 831.849 319.833C833.167 320.151 834.607 320.31 836.17 320.31C838.074 320.31 839.637 320.041 840.857 319.504C842.103 318.967 843.018 318.222 843.604 317.27C844.214 316.318 844.52 315.244 844.52 314.047ZM884.656 283.798L870.154 328H858.472L878.284 274.68H885.718L884.656 283.798ZM896.705 328L882.166 283.798L880.994 274.68H888.501L908.423 328H896.705ZM896.045 308.151V316.757H867.884V308.151H896.045ZM956.763 274.68V328H945.777L924.354 292.258V328H913.367V274.68H924.354L945.813 310.458V274.68H956.763ZM1010.12 300.095V302.622C1010.12 306.674 1009.57 310.312 1008.47 313.535C1007.37 316.757 1005.82 319.504 1003.82 321.774C1001.82 324.021 999.427 325.742 996.644 326.938C993.885 328.134 990.821 328.732 987.452 328.732C984.107 328.732 981.043 328.134 978.26 326.938C975.501 325.742 973.108 324.021 971.082 321.774C969.056 319.504 967.481 316.757 966.358 313.535C965.259 310.312 964.71 306.674 964.71 302.622V300.095C964.71 296.018 965.259 292.38 966.358 289.182C967.457 285.959 969.007 283.212 971.009 280.942C973.035 278.671 975.428 276.938 978.187 275.742C980.97 274.545 984.034 273.947 987.378 273.947C990.748 273.947 993.812 274.545 996.57 275.742C999.354 276.938 1001.75 278.671 1003.75 280.942C1005.77 283.212 1007.34 285.959 1008.44 289.182C1009.56 292.38 1010.12 296.018 1010.12 300.095ZM999.024 302.622V300.021C999.024 297.189 998.768 294.699 998.255 292.551C997.742 290.402 996.985 288.596 995.984 287.131C994.983 285.666 993.763 284.567 992.322 283.835C990.882 283.078 989.234 282.7 987.378 282.7C985.523 282.7 983.875 283.078 982.435 283.835C981.019 284.567 979.81 285.666 978.809 287.131C977.833 288.596 977.088 290.402 976.575 292.551C976.062 294.699 975.806 297.189 975.806 300.021V302.622C975.806 305.429 976.062 307.919 976.575 310.092C977.088 312.241 977.845 314.06 978.846 315.549C979.847 317.014 981.067 318.125 982.508 318.881C983.948 319.638 985.596 320.017 987.452 320.017C989.307 320.017 990.955 319.638 992.396 318.881C993.836 318.125 995.044 317.014 996.021 315.549C996.998 314.06 997.742 312.241 998.255 310.092C998.768 307.919 999.024 305.429 999.024 302.622Z" fill="white"/>
<rect x="59" y="428" width="980" height="39" fill="#D8D8D8"/>
<rect x="18" y="884" width="880" height="39" fill="#D8D8D8"/>
<rect x="209" y="1024" width="783" height="39" transform="rotate(-90 209 1024)" fill="#D8D8D8"/>
<rect x="654" y="964" width="937" height="39" transform="rotate(-90 654 964)" fill="#D8D8D8"/>
<path d="M712.09 991.213L718.143 1004.74L715.241 1006.04L707.687 989.158L710.432 987.93L712.09 991.213ZM713.487 995.924L712.124 996.478C711.618 995.319 711.292 994.186 711.145 993.078C710.994 991.96 711.042 990.908 711.288 989.925C711.534 988.941 711.995 988.06 712.671 987.283C713.342 986.496 714.239 985.851 715.362 985.348C716.153 984.995 716.932 984.783 717.7 984.714C718.463 984.635 719.196 984.725 719.899 984.984C720.602 985.244 721.256 985.688 721.862 986.315C722.467 986.943 723.007 987.787 723.482 988.848L728.516 1000.09L725.63 1001.39L720.659 990.28C720.263 989.396 719.796 988.756 719.257 988.361C718.729 987.961 718.14 987.762 717.493 987.765C716.84 987.758 716.15 987.917 715.422 988.243C714.569 988.624 713.924 989.094 713.487 989.652C713.05 990.209 712.779 990.83 712.673 991.514C712.568 992.198 712.59 992.918 712.741 993.674C712.898 994.415 713.147 995.165 713.487 995.924ZM723.709 989.439L722.04 990.898C721.636 989.967 721.389 989.011 721.299 988.028C721.219 987.04 721.31 986.088 721.574 985.171C721.848 984.249 722.315 983.41 722.975 982.653C723.63 981.885 724.493 981.262 725.564 980.782C726.469 980.377 727.323 980.139 728.127 980.066C728.941 979.989 729.699 980.092 730.401 980.377C731.108 980.647 731.759 981.111 732.353 981.769C732.947 982.427 733.481 983.286 733.956 984.347L738.92 995.438L736.019 996.736L731.041 985.614C730.617 984.668 730.138 984.002 729.604 983.617C729.075 983.217 728.494 983.034 727.86 983.069C727.232 983.088 726.549 983.262 725.811 983.593C725.176 983.877 724.664 984.237 724.273 984.674C723.882 985.112 723.606 985.597 723.445 986.131C723.28 986.654 723.218 987.2 723.26 987.767C723.313 988.331 723.462 988.888 723.709 989.439ZM751.948 986.143L748.059 977.454C747.761 976.789 747.368 976.272 746.879 975.904C746.395 975.521 745.828 975.313 745.176 975.28C744.525 975.248 743.809 975.406 743.029 975.755C742.302 976.08 741.718 976.492 741.278 976.988C740.849 977.479 740.57 977.998 740.439 978.543C740.319 979.084 740.364 979.588 740.573 980.056L737.688 981.347C737.418 980.744 737.306 980.076 737.353 979.344C737.399 978.612 737.607 977.876 737.975 977.137C738.349 976.383 738.884 975.682 739.58 975.033C740.281 974.37 741.142 973.81 742.161 973.354C743.388 972.804 744.562 972.528 745.685 972.525C746.817 972.518 747.837 972.816 748.744 973.421C749.657 974.011 750.396 974.935 750.959 976.194L754.478 984.055C754.729 984.617 755.043 985.194 755.421 985.786C755.809 986.374 756.204 986.853 756.606 987.222L756.718 987.471L753.708 988.819C753.413 988.551 753.101 988.16 752.771 987.647C752.436 987.122 752.162 986.621 751.948 986.143ZM749.159 978.572L750.098 980.586L747.181 981.892C746.359 982.259 745.656 982.655 745.072 983.079C744.483 983.492 744.028 983.927 743.708 984.382C743.388 984.838 743.201 985.314 743.15 985.812C743.093 986.299 743.181 986.802 743.414 987.322C743.651 987.853 743.987 988.283 744.422 988.612C744.857 988.942 745.371 989.13 745.966 989.176C746.566 989.207 747.22 989.064 747.927 988.747C748.811 988.352 749.507 987.815 750.016 987.138C750.524 986.461 750.855 985.764 751.008 985.047C751.172 984.324 751.155 983.701 750.958 983.178L752.812 984.015C752.934 984.484 752.953 985.056 752.868 985.731C752.783 986.405 752.58 987.108 752.258 987.839C751.942 988.554 751.486 989.239 750.892 989.892C750.304 990.529 749.552 991.053 748.637 991.463C747.493 991.975 746.39 992.2 745.327 992.139C744.274 992.074 743.34 991.774 742.527 991.239C741.719 990.69 741.106 989.947 740.687 989.011C740.282 988.106 740.103 987.232 740.149 986.387C740.191 985.532 740.442 984.727 740.903 983.971C741.359 983.205 742.001 982.493 742.83 981.835C743.659 981.177 744.651 980.59 745.805 980.073L749.159 978.572ZM757.183 970.187L763.55 984.413L760.665 985.705L753.11 968.827L755.918 967.57L757.183 970.187ZM761.226 965.082L762.412 967.772C762.149 967.827 761.906 967.898 761.683 967.986C761.466 968.058 761.222 968.155 760.952 968.276C760.286 968.574 759.745 968.94 759.329 969.377C758.912 969.813 758.611 970.297 758.425 970.83C758.239 971.362 758.159 971.935 758.183 972.548C758.214 973.146 758.335 973.766 758.547 974.407L757.946 975.238C757.49 974.219 757.16 973.218 756.957 972.235C756.765 971.248 756.729 970.316 756.848 969.439C756.962 968.551 757.261 967.768 757.744 967.09C758.233 966.397 758.934 965.846 759.85 965.436C760.058 965.343 760.308 965.262 760.602 965.193C760.891 965.114 761.099 965.077 761.226 965.082ZM767.071 962.578L774.625 979.456L771.724 980.755L764.17 963.877L767.071 962.578ZM761.947 959.498C761.738 959.03 761.701 958.572 761.838 958.124C761.985 957.671 762.339 957.319 762.901 957.068C763.452 956.821 763.945 956.794 764.381 956.986C764.826 957.173 765.154 957.501 765.364 957.969C765.564 958.416 765.585 958.868 765.428 959.326C765.276 959.768 764.925 960.113 764.374 960.359C763.812 960.611 763.316 960.645 762.885 960.464C762.46 960.267 762.148 959.945 761.947 959.498ZM787.081 968.507C786.895 968.091 786.629 967.748 786.284 967.479C785.944 967.194 785.429 967.031 784.737 966.992C784.051 966.937 783.102 967.049 781.892 967.329C780.867 967.55 779.915 967.695 779.035 967.765C778.165 967.83 777.379 967.788 776.677 967.641C775.984 967.489 775.382 967.216 774.868 966.821C774.355 966.427 773.942 965.882 773.63 965.185C773.332 964.519 773.196 963.825 773.222 963.102C773.258 962.374 773.444 961.661 773.78 960.961C774.127 960.257 774.626 959.602 775.28 958.998C775.933 958.394 776.732 957.88 777.679 957.456C779.031 956.851 780.292 956.573 781.463 956.624C782.634 956.674 783.653 956.985 784.521 957.558C785.384 958.12 786.032 958.885 786.465 959.852L783.579 961.143C783.37 960.675 783.027 960.286 782.551 959.975C782.08 959.649 781.515 959.459 780.854 959.405C780.204 959.346 779.499 959.487 778.74 959.827C777.939 960.185 777.345 960.601 776.958 961.074C776.576 961.532 776.355 961.999 776.293 962.476C776.243 962.948 776.31 963.392 776.496 963.808C776.636 964.12 776.814 964.378 777.029 964.581C777.251 964.769 777.549 964.904 777.922 964.986C778.292 965.058 778.771 965.068 779.359 965.017C779.948 964.966 780.677 964.852 781.546 964.675C783.069 964.368 784.375 964.232 785.465 964.269C786.555 964.305 787.46 964.543 788.181 964.982C788.902 965.421 789.464 966.092 789.869 966.997C790.2 967.735 790.346 968.481 790.309 969.234C790.282 969.983 790.078 970.711 789.695 971.419C789.319 972.112 788.786 972.762 788.097 973.37C787.414 973.963 786.578 974.481 785.59 974.923C784.103 975.588 782.726 975.886 781.459 975.817C780.193 975.747 779.105 975.41 778.198 974.805C777.291 974.2 776.628 973.43 776.209 972.494L779.11 971.195C779.505 971.967 780.016 972.494 780.641 972.775C781.262 973.047 781.918 973.146 782.61 973.074C783.297 972.991 783.936 972.817 784.529 972.552C785.319 972.198 785.933 971.798 786.371 971.353C786.818 970.903 787.101 970.433 787.219 969.944C787.337 969.454 787.291 968.975 787.081 968.507ZM791.304 962.086L791.143 961.727C790.599 960.511 790.27 959.303 790.158 958.105C790.042 956.897 790.144 955.759 790.465 954.691C790.782 953.613 791.318 952.649 792.073 951.8C792.824 950.939 793.787 950.246 794.962 949.72C796.147 949.189 797.311 948.931 798.453 948.944C799.6 948.942 800.682 949.182 801.696 949.664C802.717 950.131 803.639 950.811 804.462 951.703C805.281 952.584 805.963 953.634 806.508 954.85L806.668 955.209C807.213 956.426 807.541 957.633 807.653 958.831C807.765 960.029 807.657 961.17 807.331 962.252C807.009 963.32 806.474 964.284 805.723 965.144C804.978 965.989 804.012 966.677 802.827 967.208C801.641 967.738 800.48 968.002 799.343 967.999C798.201 967.986 797.12 967.746 796.1 967.279C795.085 966.797 794.168 966.115 793.349 965.234C792.53 964.352 791.848 963.303 791.304 962.086ZM794.029 960.436L794.189 960.795C794.566 961.637 795.021 962.388 795.554 963.048C796.082 963.698 796.672 964.221 797.323 964.616C797.984 965.006 798.691 965.233 799.443 965.296C800.191 965.348 800.965 965.195 801.766 964.837C802.556 964.483 803.175 964.012 803.624 963.425C804.078 962.822 804.375 962.146 804.514 961.397C804.653 960.648 804.656 959.861 804.523 959.034C804.396 958.192 804.144 957.35 803.767 956.508L803.606 956.149C803.234 955.317 802.779 954.578 802.24 953.933C801.707 953.273 801.11 952.747 800.449 952.357C799.793 951.952 799.089 951.717 798.337 951.655C797.595 951.587 796.824 951.733 796.023 952.091C795.233 952.445 794.611 952.923 794.156 953.526C793.713 954.124 793.418 954.805 793.273 955.569C793.134 956.318 793.133 957.111 793.271 957.948C793.404 958.774 793.656 959.604 794.029 960.436ZM806.392 936.478L817.116 960.438L814.215 961.736L803.49 937.777L806.392 936.478Z" fill="#D8D8D8"/>
<path d="M750 197.472L760.895 231.004L761.344 232.386H762.797H798.055L769.531 253.11L768.355 253.964L768.804 255.346L779.7 288.878L751.176 268.154L750 267.3L748.824 268.154L720.3 288.878L731.196 255.346L731.645 253.964L730.469 253.11L701.945 232.386H737.203H738.656L739.105 231.004L750 197.472Z" fill="white" stroke="#F4B000" stroke-width="4"/>
<path d="M750 224.472L754.833 239.348L755.282 240.729H756.735H772.376L759.723 249.923L758.547 250.777L758.996 252.159L763.829 267.034L751.176 257.841L750 256.987L748.824 257.841L736.171 267.034L741.004 252.159L741.453 250.777L740.277 249.923L727.624 240.729H743.265H744.718L745.167 239.348L750 224.472Z" fill="#F4B000" stroke="#F4B000" stroke-width="4"/>
<path d="M944.775 94.225C943.342 94.225 942.267 93.85 941.55 93.1C940.833 92.3333 940.475 91.2333 940.475 89.8V83.425H938.8C938.217 83.425 937.925 83.1583 937.925 82.625C937.925 82.1083 938.217 81.85 938.8 81.85H940.475V78.975C940.475 78.2917 940.817 77.95 941.5 77.95C942.167 77.95 942.5 78.2917 942.5 78.975V81.85H945.65C946.233 81.85 946.525 82.1083 946.525 82.625C946.525 83.1583 946.233 83.425 945.65 83.425H942.5V89.6C942.5 90.55 942.7 91.275 943.1 91.775C943.5 92.2583 944.15 92.5 945.05 92.5C945.367 92.5 945.633 92.4667 945.85 92.4C946.067 92.3333 946.258 92.3 946.425 92.3C946.575 92.2833 946.7 92.3333 946.8 92.45C946.9 92.5667 946.95 92.7667 946.95 93.05C946.95 93.25 946.908 93.4333 946.825 93.6C946.758 93.7667 946.633 93.8833 946.45 93.95C946.25 94.0167 945.983 94.075 945.65 94.125C945.333 94.1917 945.042 94.225 944.775 94.225ZM953.993 94.225C952.076 94.225 950.56 93.6667 949.443 92.55C948.326 91.4167 947.768 89.8833 947.768 87.95C947.768 86.7 948.018 85.6 948.518 84.65C949.018 83.6833 949.701 82.9417 950.568 82.425C951.451 81.8917 952.468 81.625 953.618 81.625C955.268 81.625 956.56 82.1583 957.493 83.225C958.426 84.275 958.893 85.725 958.893 87.575C958.893 88.0917 958.601 88.35 958.018 88.35H949.743C949.81 89.7333 950.21 90.7917 950.943 91.525C951.676 92.2417 952.693 92.6 953.993 92.6C954.543 92.6 955.101 92.5333 955.668 92.4C956.235 92.25 956.785 91.9917 957.318 91.625C957.701 91.375 958.018 91.325 958.268 91.475C958.535 91.625 958.668 91.8583 958.668 92.175C958.685 92.475 958.518 92.7417 958.168 92.975C957.618 93.375 956.96 93.6833 956.193 93.9C955.443 94.1167 954.71 94.225 953.993 94.225ZM953.668 83.125C952.518 83.125 951.61 83.4833 950.943 84.2C950.276 84.9167 949.885 85.8583 949.768 87.025H957.143C957.093 85.7917 956.768 84.8333 956.168 84.15C955.585 83.4667 954.751 83.125 953.668 83.125ZM962.849 94.175C962.165 94.175 961.824 93.825 961.824 93.125V82.7C961.824 82.0167 962.149 81.675 962.799 81.675C963.465 81.675 963.799 82.0167 963.799 82.7V84.025C964.132 83.2583 964.649 82.675 965.349 82.275C966.049 81.8583 966.882 81.6333 967.849 81.6C968.382 81.55 968.665 81.8167 968.699 82.4C968.749 82.9833 968.449 83.3083 967.799 83.375L967.399 83.425C966.249 83.525 965.374 83.8917 964.774 84.525C964.174 85.1417 963.874 85.9917 963.874 87.075V93.125C963.874 93.825 963.532 94.175 962.849 94.175ZM971.834 94.175C971.167 94.175 970.834 93.825 970.834 93.125V82.7C970.834 82.0167 971.159 81.675 971.809 81.675C972.475 81.675 972.809 82.0167 972.809 82.7V83.9C973.175 83.1667 973.684 82.6083 974.334 82.225C974.984 81.825 975.742 81.625 976.609 81.625C978.509 81.625 979.725 82.45 980.259 84.1C980.625 83.3333 981.167 82.7333 981.884 82.3C982.6 81.85 983.425 81.625 984.359 81.625C987.059 81.625 988.409 83.225 988.409 86.425V93.125C988.409 93.825 988.067 94.175 987.384 94.175C986.717 94.175 986.384 93.825 986.384 93.125V86.525C986.384 85.4083 986.184 84.5917 985.784 84.075C985.4 83.5417 984.759 83.275 983.859 83.275C982.875 83.275 982.092 83.625 981.509 84.325C980.925 85.025 980.634 85.9583 980.634 87.125V93.125C980.634 93.825 980.292 94.175 979.609 94.175C978.942 94.175 978.609 93.825 978.609 93.125V86.525C978.609 85.4083 978.409 84.5917 978.009 84.075C977.625 83.5417 976.984 83.275 976.084 83.275C975.084 83.275 974.292 83.625 973.709 84.325C973.142 85.025 972.859 85.9583 972.859 87.125V93.125C972.859 93.825 972.517 94.175 971.834 94.175ZM993.195 78.925C992.312 78.925 991.87 78.5083 991.87 77.675C991.87 76.8583 992.312 76.45 993.195 76.45C994.078 76.45 994.52 76.8583 994.52 77.675C994.52 78.5083 994.078 78.925 993.195 78.925ZM993.195 94.125C992.528 94.125 992.195 93.7583 992.195 93.025V82.8C992.195 82.0833 992.528 81.725 993.195 81.725C993.878 81.725 994.22 82.0833 994.22 82.8V93.025C994.22 93.7583 993.878 94.125 993.195 94.125ZM999.005 94.175C998.339 94.175 998.005 93.825 998.005 93.125V82.7C998.005 82.0167 998.33 81.675 998.98 81.675C999.647 81.675 999.98 82.0167 999.98 82.7V83.925C1000.38 83.1583 1000.95 82.5833 1001.68 82.2C1002.41 81.8167 1003.24 81.625 1004.16 81.625C1007.04 81.625 1008.48 83.225 1008.48 86.425V93.125C1008.48 93.825 1008.15 94.175 1007.48 94.175C1006.8 94.175 1006.46 93.825 1006.46 93.125V86.55C1006.46 85.4167 1006.23 84.5917 1005.78 84.075C1005.35 83.5417 1004.65 83.275 1003.68 83.275C1002.56 83.275 1001.67 83.625 1001.01 84.325C1000.36 85.0083 1000.03 85.925 1000.03 87.075V93.125C1000.03 93.825 999.689 94.175 999.005 94.175ZM1016.04 94.225C1015.21 94.225 1014.46 94.0667 1013.79 93.75C1013.14 93.4167 1012.62 92.9667 1012.24 92.4C1011.86 91.8333 1011.66 91.2 1011.66 90.5C1011.66 89.6167 1011.89 88.9167 1012.34 88.4C1012.81 87.8833 1013.56 87.5167 1014.61 87.3C1015.68 87.0667 1017.13 86.95 1018.96 86.95H1019.76V86.175C1019.76 85.1417 1019.55 84.4 1019.11 83.95C1018.7 83.4833 1018.02 83.25 1017.09 83.25C1016.51 83.25 1015.91 83.325 1015.31 83.475C1014.73 83.625 1014.12 83.8667 1013.49 84.2C1013.21 84.35 1012.96 84.3833 1012.76 84.3C1012.58 84.2 1012.45 84.05 1012.36 83.85C1012.3 83.6333 1012.3 83.4167 1012.36 83.2C1012.45 82.9667 1012.61 82.7917 1012.86 82.675C1013.58 82.3083 1014.3 82.0417 1015.01 81.875C1015.75 81.7083 1016.44 81.625 1017.09 81.625C1018.66 81.625 1019.81 82.0083 1020.56 82.775C1021.33 83.5417 1021.71 84.7333 1021.71 86.35V93.125C1021.71 93.825 1021.41 94.175 1020.79 94.175C1020.14 94.175 1019.81 93.825 1019.81 93.125V91.9C1019.5 92.6167 1019.01 93.1833 1018.34 93.6C1017.69 94.0167 1016.92 94.225 1016.04 94.225ZM1016.36 92.7C1017.36 92.7 1018.18 92.3583 1018.81 91.675C1019.45 90.975 1019.76 90.0917 1019.76 89.025V88.275H1018.99C1017.64 88.275 1016.57 88.3417 1015.79 88.475C1015.02 88.5917 1014.48 88.8083 1014.16 89.125C1013.86 89.425 1013.71 89.8417 1013.71 90.375C1013.71 91.0583 1013.95 91.6167 1014.41 92.05C1014.9 92.4833 1015.55 92.7 1016.36 92.7ZM1029.17 94.225C1027.97 94.225 1027.05 93.8667 1026.42 93.15C1025.79 92.4167 1025.47 91.3583 1025.47 89.975V77.225C1025.47 76.5417 1025.8 76.2 1026.47 76.2C1027.15 76.2 1027.5 76.5417 1027.5 77.225V89.825C1027.5 91.6083 1028.2 92.5 1029.62 92.5C1029.77 92.5 1029.9 92.4917 1030.02 92.475C1030.14 92.4583 1030.25 92.45 1030.37 92.45C1030.55 92.4333 1030.68 92.475 1030.75 92.575C1030.83 92.675 1030.87 92.875 1030.87 93.175C1030.87 93.7417 1030.59 94.0667 1030.02 94.15C1029.89 94.1833 1029.75 94.2 1029.6 94.2C1029.45 94.2167 1029.3 94.225 1029.17 94.225Z" fill="#E2E2E2"/>
<path d="M1040.03 49.9722C1040.37 49.2131 1040.02 48.3288 1039.26 47.9971L1026.89 42.5906C1026.13 42.2589 1025.25 42.6053 1024.91 43.3644C1024.58 44.1235 1024.93 45.0078 1025.69 45.3395L1036.68 50.1453L1031.88 61.1409C1031.55 61.9 1031.89 62.7844 1032.65 63.1161C1033.41 63.4479 1034.3 63.1015 1034.63 62.3424L1040.03 49.9722ZM986.547 71.3967L1039.21 50.7682L1038.11 47.9749L985.453 68.6033L986.547 71.3967Z" fill="#E2E2E2"/>
<rect x="446" y="258" width="10" height="80" fill="white"/>
<rect x="431" y="288" width="10" height="40" transform="rotate(-90 431 288)" fill="white"/>
</svg>
